<?xml version="1.0" standalone="no"?>
<!DOCTYPE svg PUBLIC "-//W3C//DTD SVG 20010904//EN"
 "http://www.w3.org/TR/2001/REC-SVG-20010904/DTD/svg10.dtd">
<svg version="1.0" xmlns="http://www.w3.org/2000/svg"
 width="512.000000pt" height="512.000000pt" viewBox="0 0 512.000000 512.000000"
 preserveAspectRatio="xMidYMid meet">
<metadata>
Created by potrace 1.16, written by Peter Selinger 2001-2019
</metadata>
<g transform="translate(0.000000,512.000000) scale(0.100000,-0.100000)"
fill="#6B7C74" stroke="none">
<path d="M4535 5005 c-66 -46 -130 -91 -143 -100 -27 -20 -55 -79 -70 -150 -6
-28 -17 -65 -25 -84 l-14 -34 -43 82 c-26 51 -56 92 -80 111 -77 61 -194 95
-304 88 -71 -5 -196 -35 -196 -47 0 -4 38 -14 84 -24 137 -28 421 -120 470
-152 26 -18 72 -82 63 -91 -2 -2 -24 12 -47 31 -79 66 -92 70 -235 70 -126 0
-132 -1 -195 -32 -36 -17 -76 -41 -90 -52 -25 -20 -25 -20 -5 -35 20 -14 19
-15 -14 -50 -19 -20 -32 -38 -29 -42 4 -3 32 -2 64 2 55 6 63 11 135 80 43 41
84 74 93 74 8 0 21 3 30 6 8 3 0 -11 -19 -30 -19 -20 -39 -53 -45 -74 -16 -60
-10 -212 9 -212 9 0 145 131 167 161 l19 27 40 -39 39 -40 -31 12 c-18 6 -40
9 -49 7 -19 -3 55 -83 175 -187 34 -29 60 -55 58 -58 -2 -2 -27 8 -54 22 -36
19 -62 25 -93 23 l-43 -3 26 -31 c15 -18 27 -37 27 -43 0 -14 11 -14 47 0 15
6 46 15 67 19 37 7 42 5 88 -38 27 -25 46 -38 43 -29 -4 8 -38 43 -76 77 -38
34 -69 65 -69 70 0 18 66 -11 92 -41 24 -29 88 -139 88 -153 0 -3 -7 -3 -15 0
-8 4 -12 11 -8 17 3 5 1 7 -5 3 -6 -3 -13 -2 -17 4 -14 23 -106 60 -148 60
-79 0 -183 -44 -282 -118 l-60 -45 50 52 c46 47 88 74 157 100 25 9 26 12 15
40 -13 35 -35 43 -82 30 -36 -10 -72 -47 -81 -86 -4 -12 -11 -20 -16 -17 -5 3
-7 17 -4 30 4 13 2 24 -3 24 -21 0 -78 -60 -105 -110 -29 -54 -29 -72 1 -49
17 13 17 12 0 -7 -19 -23 -39 -121 -27 -129 5 -3 22 18 40 45 49 76 204 183
309 214 102 30 132 15 46 -23 -61 -27 -79 -59 -79 -140 -1 -56 4 -77 32 -134
26 -53 31 -70 22 -84 -10 -16 -10 -16 -5 3 6 23 -16 54 -39 54 -42 0 -152
-102 -188 -175 -47 -94 -48 -228 -3 -321 l28 -56 37 113 c21 63 54 151 75 197
l38 82 86 2 86 2 -83 3 -82 4 15 28 c8 16 21 31 30 35 8 3 20 17 25 31 9 25
74 64 86 52 3 -3 -1 -16 -10 -29 -9 -12 -16 -37 -16 -54 0 -27 3 -31 23 -28
18 3 29 -7 59 -56 l38 -60 -53 -25 c-53 -24 -104 -62 -95 -70 3 -3 43 18 89
46 76 46 232 129 243 129 3 0 6 -10 8 -22 3 -20 -11 -30 -107 -78 -96 -48
-235 -135 -235 -147 0 -5 13 2 65 37 57 38 160 95 228 124 51 23 57 24 57 8 0
-10 -32 -37 -85 -70 -88 -55 -245 -170 -245 -179 0 -3 7 0 16 8 9 7 32 12 52
12 35 -1 36 -1 7 6 -29 6 -25 10 109 99 76 51 142 92 146 92 7 0 34 -119 28
-125 -20 -18 -192 -94 -201 -89 -7 4 -9 4 -5 -1 5 -5 -13 -22 -40 -39 l-47
-31 -3 -106 -3 -107 -42 10 c-56 13 -152 4 -213 -21 -43 -17 -45 -20 -21 -20
16 -1 43 -7 60 -15 18 -7 64 -27 103 -45 39 -17 82 -31 96 -31 23 0 37 -19 38
-50 0 -3 -39 -6 -88 -6 -100 -2 -175 -25 -235 -75 -42 -35 -43 -45 -2 -29 70
27 203 39 302 28 154 -17 166 -33 25 -33 -129 -1 -187 -18 -245 -73 -33 -31
-82 -110 -74 -118 3 -4 21 5 39 19 18 13 44 30 57 37 23 12 24 11 17 -24 -8
-40 -6 -42 32 -22 15 7 37 17 50 20 21 7 22 5 22 -42 0 -31 -5 -52 -12 -55 -8
-3 -6 -6 5 -6 14 -1 17 8 17 58 0 47 3 60 18 64 9 2 25 8 35 12 15 6 17 -1 17
-83 0 -56 -4 -93 -11 -98 -7 -4 -9 -22 -6 -46 l5 -40 -21 20 c-32 30 -107 62
-146 62 l-34 0 48 -25 c63 -34 135 -84 135 -94 0 -5 -14 -14 -31 -21 -42 -18
-76 -74 -84 -140 l-7 -54 36 32 c32 28 106 72 120 72 3 0 3 -24 1 -52 -2 -29
1 -61 7 -71 7 -13 6 -23 -1 -30 -6 -6 -11 -39 -11 -73 0 -34 -4 -64 -9 -66 -5
-1 -3 -9 5 -16 12 -11 14 -5 14 41 l0 55 44 -5 c69 -8 116 5 149 40 l29 32 39
-44 c22 -24 39 -48 39 -53 0 -5 -28 -8 -63 -7 -72 2 -111 -14 -151 -61 -14
-18 -26 -44 -26 -58 0 -24 4 -22 35 25 33 49 77 83 107 83 7 0 2 -6 -11 -13
-33 -17 -45 -39 -37 -70 5 -20 13 -27 30 -27 15 0 26 -7 29 -18 3 -9 5 11 6
46 1 67 5 71 51 47 l30 -16 0 -107 c1 -94 -3 -120 -32 -214 l-33 -107 -65 4
-65 4 59 -9 c32 -5 61 -12 64 -15 3 -2 -3 -35 -13 -72 -18 -65 -19 -67 -27
-37 -4 17 -16 38 -27 48 -19 17 -19 17 -6 -21 16 -44 20 -117 5 -108 -5 3 -6
13 -3 22 4 10 2 14 -5 9 -6 -3 -13 3 -17 14 -3 11 -17 33 -30 48 -19 23 -25
46 -33 132 -6 58 -8 137 -5 175 4 67 6 72 51 118 25 26 42 47 37 47 -21 0 -82
-43 -117 -83 l-38 -42 0 43 c0 33 5 48 21 61 l22 17 -29 23 c-21 17 -39 21
-76 20 -43 -2 -53 1 -86 32 l-37 34 34 -37 33 -36 -36 -32 c-20 -18 -36 -35
-36 -39 0 -4 40 -7 90 -7 l90 1 0 -50 c0 -28 -9 -76 -20 -108 -26 -75 -26 -77
15 -70 34 5 34 5 41 -36 4 -25 12 -41 20 -41 23 0 18 -83 -6 -105 -19 -18 -20
-17 -20 2 0 12 -8 31 -18 44 l-19 22 -16 -59 c-10 -40 -15 -50 -16 -31 -2 51
-58 85 -170 103 l-44 7 7 75 c3 41 6 98 6 126 1 59 -5 64 92 -70 78 -108 107
-137 121 -125 7 5 23 11 37 14 14 3 5 5 -20 4 l-45 -2 -85 113 -85 114 1 396
c0 218 -1 290 -3 159 l-3 -238 -27 20 c-28 23 -112 51 -150 51 l-23 0 0 205 0
204 88 4 87 3 -87 2 -87 2 -4 83 c-1 45 -4 -50 -5 -212 l-2 -294 -36 6 c-20 3
-39 8 -42 11 -2 3 -8 193 -12 423 -3 230 -7 352 -8 271 l-2 -147 -37 -4 -38
-4 38 -1 37 -2 0 -170 0 -169 -67 -4 -68 -3 73 -2 72 -2 0 -94 0 -94 -86 -7
c-47 -4 -87 -5 -89 -3 -3 2 -2 342 2 756 l6 752 99 0 c59 0 98 4 98 10 0 6 30
11 68 12 l67 2 -64 3 c-36 2 -68 0 -74 -6 -13 -13 -176 -14 -195 -2 -11 7 -13
87 -11 429 2 232 0 424 -4 428 -4 4 -7 -531 -7 -1189 0 -659 -2 -1197 -4
-1197 -2 0 -39 -7 -82 -15 -108 -21 -156 -46 -193 -104 -31 -47 -102 -227
-116 -289 -4 -19 -10 -30 -14 -25 -5 4 -22 50 -40 102 -51 148 -89 220 -127
243 l-33 19 24 35 c66 97 70 114 73 322 4 185 5 194 23 189 18 -5 19 1 17 81
l-2 87 -3 -77 c-3 -70 -6 -78 -23 -78 -19 0 -20 -8 -20 -162 -1 -145 -2 -160
-14 -132 -8 17 -35 55 -61 84 -60 68 -72 97 -85 207 -12 111 -52 192 -132 274
-87 89 -123 103 -320 125 l-48 6 -2 636 -2 637 -7 -480 c-3 -264 -7 -553 -8
-641 l-1 -162 -25 -4 -25 -5 -3 231 -2 231 -3 -237 -2 -237 -27 -15 c-16 -8
-50 -38 -78 -66 -27 -28 -63 -58 -78 -66 -45 -24 -107 -85 -128 -126 -11 -22
-23 -76 -29 -130 -16 -154 -13 -186 21 -258 30 -61 53 -150 40 -150 -11 0 -41
-57 -41 -76 0 -26 87 72 99 111 5 17 10 24 10 16 1 -19 -21 -81 -29 -81 -10 0
5 -103 18 -127 7 -12 22 -29 34 -37 12 -9 19 -16 15 -16 -16 0 -64 29 -78 47
-13 17 -13 17 5 3 18 -14 19 -14 11 5 -5 11 -10 42 -13 68 l-4 49 -29 -28
c-16 -15 -30 -39 -30 -53 -1 -14 -7 1 -14 34 l-12 60 -7 -37 c-12 -54 9 -104
56 -138 21 -16 52 -32 69 -35 16 -4 29 -8 29 -10 0 -14 -73 -125 -82 -125 -6
0 -8 -3 -5 -7 4 -3 -8 -25 -26 -47 -18 -23 -53 -71 -77 -108 -48 -74 -53 -74
-71 9 -7 29 -16 50 -20 47 -5 -3 -6 2 -3 10 3 9 -4 21 -20 31 -23 15 -60 16
-388 11 -200 -4 -397 -8 -438 -11 -71 -4 -73 -3 -37 8 l38 13 -21 19 c-17 16
-26 17 -49 8 -26 -10 -30 -8 -45 21 l-16 31 6 -33 c4 -25 0 -39 -20 -62 -20
-24 -23 -35 -17 -58 8 -26 5 -30 -36 -52 -52 -27 -123 -104 -164 -175 -40 -70
-36 -51 14 63 46 104 87 169 151 242 34 38 35 40 7 15 -47 -42 -114 -132 -139
-185 -12 -25 -19 -34 -16 -21 4 16 3 21 -5 17 -6 -4 -11 -17 -11 -29 0 -22 -1
-22 -20 3 -27 34 -25 68 6 114 l27 39 18 -34 c22 -41 24 -34 5 13 -14 33 -14
35 27 87 23 29 66 71 97 93 l55 39 6 -28 c6 -27 7 -27 8 6 0 19 9 43 18 55 13
14 9 13 -17 -6 -19 -14 -51 -34 -70 -43 -19 -10 -66 -48 -104 -84 -38 -37 -63
-55 -56 -42 24 47 105 123 194 184 49 34 102 79 117 101 l29 39 2 -44 c1 -37
2 -33 8 21 3 36 6 66 5 67 -4 9 -195 -148 -250 -204 -38 -40 -72 -70 -75 -65
-3 4 -4 54 -2 111 l3 103 75 -6 c47 -4 74 -3 74 3 0 16 -50 38 -103 46 l-47 7
0 113 c0 78 4 116 13 122 23 19 66 23 116 12 l51 -11 0 -79 c0 -72 -2 -79 -19
-79 -16 0 -21 8 -24 43 l-4 42 -1 -47 -2 -48 88 2 c48 1 70 3 50 5 -34 4 -37
7 -41 41 l-4 37 -1 -37 c-1 -26 -7 -38 -17 -38 -12 0 -15 15 -15 75 0 41 4 75
8 75 4 0 23 -11 42 -25 19 -14 42 -25 52 -25 15 0 18 -9 20 -57 l1 -58 6 60 6
60 60 -3 60 -4 -29 31 c-16 17 -39 34 -50 38 -20 6 -20 7 4 14 22 6 20 7 -12
8 -69 2 -77 16 -13 22 56 6 56 6 -15 4 -41 -1 -90 0 -108 2 -32 5 -32 5 -32
64 0 48 -4 60 -22 73 -12 9 -38 16 -56 16 -22 0 -32 4 -30 12 7 20 87 39 173
41 72 2 85 -1 128 -26 27 -16 51 -27 53 -24 10 9 -64 77 -84 77 -13 0 -22 6
-22 15 0 8 -4 15 -9 15 -5 0 -26 7 -47 17 -40 17 -96 18 -126 2 -12 -7 -27 -5
-46 5 -34 17 -62 5 -62 -27 0 -14 -13 -30 -35 -45 -73 -47 -25 34 49 84 49 33
46 48 -4 19 -41 -24 -42 -17 -3 19 47 42 80 59 95 50 7 -4 8 -3 4 4 -9 15 69
65 138 89 37 13 82 18 168 18 64 0 114 3 110 6 -45 39 -208 51 -315 23 -89
-23 -135 -50 -202 -118 -33 -34 -59 -59 -58 -57 2 2 -3 11 -10 19 -10 13 -9
14 2 8 10 -6 12 -4 7 11 -5 17 -1 22 24 27 30 5 144 97 154 122 9 22 -67 -8
-118 -48 -27 -21 -54 -38 -60 -38 -8 0 -9 45 -5 159 6 141 9 163 29 200 35 61
60 58 173 -25 32 -24 69 -44 81 -44 24 0 70 -28 91 -56 29 -38 -5 44 -39 93
-46 67 -82 83 -189 83 l-88 0 18 30 c20 35 13 33 105 19 85 -13 194 -4 202 17
3 9 -8 20 -32 33 -54 27 -93 33 -143 22 -59 -13 -62 -5 -5 20 26 11 63 31 83
45 20 13 41 24 47 24 6 -1 -6 -10 -26 -21 -21 -11 -38 -21 -38 -22 0 -1 37 -1
83 1 61 2 97 10 140 29 34 14 71 23 87 21 36 -5 30 12 -13 37 -43 26 -157 27
-207 2 l-35 -18 25 20 c14 11 64 40 111 64 l86 45 -41 6 c-60 9 -143 -10 -199
-46 -68 -44 -139 -157 -89 -142 9 2 6 -1 -8 -8 -14 -7 -42 -32 -64 -55 -21
-24 -42 -43 -46 -43 -14 0 -20 79 -9 130 6 28 22 79 35 113 l23 62 -43 -48
c-56 -60 -71 -118 -56 -214 6 -36 9 -66 8 -67 -2 -1 -13 -10 -25 -20 l-23 -19
3 154 c4 154 4 154 41 235 l38 82 46 6 c26 4 85 21 130 39 96 38 96 43 -10 77
-42 13 -68 27 -68 36 0 12 -6 12 -37 -1 -47 -20 -87 -57 -123 -113 -26 -39
-29 -41 -35 -22 -7 21 12 160 22 160 2 0 12 -4 22 -10 23 -12 74 1 166 43 62
29 66 32 42 37 l-27 5 47 39 c45 36 46 38 18 32 -43 -10 -174 -73 -212 -102
-42 -32 -56 -31 -41 1 6 14 16 25 21 25 16 0 191 82 198 93 4 5 12 6 18 3 6
-4 11 -3 11 3 0 5 33 20 72 33 87 26 86 26 68 39 -8 6 -40 8 -70 5 l-55 -5 52
57 c64 69 67 86 16 80 -21 -3 -47 -8 -58 -12 -11 -4 5 15 35 43 61 56 51 68
-27 30 -40 -19 -103 -82 -103 -102 0 -5 -20 -33 -45 -62 -25 -29 -68 -90 -95
-136 -28 -45 -50 -75 -50 -67 0 9 56 100 125 204 68 103 123 190 121 192 -2 2
-17 -3 -34 -12 -37 -19 -90 -80 -109 -124 -11 -27 -17 -32 -24 -21 -6 10 -9 2
-10 -26 -2 -84 -17 -92 -18 -10 -2 76 -20 140 -35 117 -3 -6 -9 -38 -13 -72
l-6 -62 -17 53 c-9 30 -27 73 -39 97 -23 44 -87 122 -101 122 -5 0 7 -38 25
-84 18 -47 36 -100 39 -118 l7 -33 -22 40 c-35 66 -70 113 -96 130 -24 16 -25
16 -18 -4 8 -28 -9 -27 -36 2 -22 22 -22 20 -3 -28 5 -11 -1 -15 -21 -15 -24
0 -26 -2 -14 -16 7 -9 33 -30 58 -47 105 -71 201 -168 201 -204 0 -4 -17 9
-37 29 -32 30 -236 148 -256 148 -4 0 -1 -12 5 -27 26 -60 72 -115 124 -150
30 -20 54 -38 54 -40 0 -2 -11 -1 -25 3 -15 4 -25 2 -25 -4 0 -13 71 -75 127
-110 43 -27 47 -37 35 -78 -6 -19 -17 -11 -87 69 -137 156 -146 163 -207 183
-32 9 -60 15 -64 11 -12 -12 63 -133 116 -187 38 -39 82 -69 143 -99 108 -53
119 -79 20 -49 -113 34 -192 10 -249 -76 l-26 -39 23 7 c51 15 263 28 286 17
13 -6 23 -7 23 -2 0 18 -53 51 -84 52 -22 1 -16 4 19 9 68 10 76 5 75 -44 0
-22 5 -72 11 -111 8 -53 7 -110 -3 -235 l-14 -165 -28 42 c-25 37 -26 45 -17
80 28 99 -3 205 -77 261 l-32 25 15 -36 c8 -20 15 -62 15 -94 l-1 -58 -13 37
c-21 58 -43 86 -84 106 -48 25 -101 32 -147 22 -62 -14 -63 -26 -3 -44 29 -9
69 -30 88 -46 l34 -30 -42 0 c-35 0 -49 -6 -80 -35 -36 -34 -36 -36 -18 -50
22 -17 100 -19 160 -5 45 10 86 -2 47 -15 -56 -17 -167 -107 -149 -120 2 -1
17 -11 35 -23 39 -28 41 -27 41 4 0 14 8 38 19 52 21 29 80 68 89 59 3 -3 -9
-13 -26 -24 -18 -10 -40 -35 -51 -55 -24 -48 -24 -56 1 -27 18 23 19 23 20 4
0 -11 -4 -35 -9 -53 -5 -17 -7 -32 -4 -32 16 0 132 98 137 115 4 16 8 17 18 7
10 -10 6 -18 -20 -42 -51 -46 -42 -79 15 -55 48 20 48 20 61 -24 24 -77 15
-177 -24 -303 l-37 -118 -38 6 c-43 7 -58 -10 -60 -68 -1 -32 -2 -32 -9 7 -4
22 -10 58 -13 80 l-7 40 11 -35 11 -35 24 75 c40 126 46 169 32 230 -6 30 -12
76 -12 102 1 46 1 46 -16 25 -33 -42 -48 -83 -66 -179 -17 -95 -25 -111 -40
-86 -4 6 -3 9 2 5 5 -3 7 26 3 71 -9 113 -62 211 -139 256 l-33 19 6 -42 c4
-31 45 -132 74 -181 2 -3 -26 -5 -61 -5 -55 0 -70 -4 -108 -30 -23 -17 -41
-35 -38 -40 3 -6 41 -10 85 -9 44 1 69 -1 56 -3 -20 -4 -15 -8 30 -22 30 -10
65 -18 78 -19 13 -1 29 -6 35 -12 8 -9 3 -11 -19 -9 -51 4 -59 0 -87 -40 -24
-33 -25 -40 -12 -45 33 -13 74 -5 102 19 55 46 48 25 -8 -25 -39 -35 -52 -52
-44 -60 7 -7 16 -5 28 9 14 16 23 18 43 10 14 -5 34 -7 44 -4 15 5 19 1 19
-15 0 -19 -4 -21 -25 -16 -14 4 -25 5 -25 4 0 -2 11 -25 25 -52 14 -27 25 -60
25 -72 0 -13 7 -27 15 -31 12 -7 16 -45 21 -183 l7 -175 -24 16 c-23 16 -24
23 -30 150 -3 74 -11 147 -17 162 -7 16 -12 40 -12 53 0 14 -4 23 -8 20 -5 -3
-9 8 -9 24 0 15 -8 41 -18 56 -15 24 -19 25 -27 10 -8 -15 -14 -12 -47 21 -41
42 -126 87 -183 97 -36 7 -38 5 -38 -19 0 -19 19 -44 72 -95 72 -69 73 -69 33
-55 -22 8 -55 14 -72 15 l-33 0 0 -70 c0 -38 1 -70 3 -70 2 0 39 15 83 34 57
25 82 32 91 24 10 -8 7 -15 -12 -30 -14 -11 -37 -42 -51 -70 l-25 -50 43 30
c76 52 79 51 125 -30 50 -89 88 -177 80 -185 -4 -3 -29 6 -57 21 -54 28 -79
25 -100 -14 -19 -35 -12 -40 46 -38 61 3 57 6 89 -67 30 -68 45 -137 45 -209
l0 -68 -34 51 c-39 58 -203 238 -225 246 -7 3 2 -12 21 -33 55 -60 137 -303
138 -405 0 -28 0 -28 -33 15 -61 79 -134 109 -229 92 l-43 -7 68 -13 c38 -7
87 -24 110 -38 49 -29 124 -103 92 -92 -48 18 -125 19 -169 2 -48 -18 -84 -49
-47 -39 37 10 111 -8 139 -32 l27 -24 -30 -1 c-40 0 -71 -23 -95 -70 -26 -52
-25 -54 9 -20 38 39 71 45 127 26 52 -17 134 -63 134 -74 0 -4 -45 -7 -99 -7
-85 0 -104 -3 -127 -21 -42 -31 -64 -65 -70 -109 l-6 -40 31 42 c54 71 166
112 223 82 18 -10 16 -13 -30 -34 -62 -29 -116 -96 -110 -137 4 -24 1 -26 -26
-26 -44 2 -76 -40 -76 -100 0 -26 5 -54 10 -62 8 -12 10 -10 10 8 0 62 68 137
91 101 13 -21 11 -29 -9 -29 -10 0 -21 -2 -24 -5 -5 -5 15 -157 27 -203 5 -20
-2 -26 -47 -48 -71 -34 -128 -67 -128 -76 0 -7 131 50 169 74 18 11 23 11 31
-2 7 -12 4 -16 -15 -18 -14 -2 -25 -8 -25 -13 0 -5 36 -9 80 -9 58 0 81 4 87
14 5 10 24 14 53 14 184 -4 234 0 251 21 13 16 29 21 63 21 24 0 48 5 51 10 4
6 -12 10 -41 10 -43 0 -46 2 -40 23 3 12 6 28 6 35 0 8 21 12 69 12 l69 0 9
-52 c8 -48 7 -54 -12 -62 -20 -9 -20 -9 0 -13 11 -3 24 -9 29 -14 14 -13 150
-10 226 5 64 13 65 13 37 26 -26 13 -27 16 -21 59 4 25 8 48 10 50 2 2 50 -1
106 -7 57 -6 151 -14 211 -18 59 -4 107 -10 107 -15 0 -9 -227 -3 -257 6 -6 2
-28 -4 -49 -14 -35 -17 -36 -18 -12 -24 33 -9 174 -23 350 -37 110 -9 152 -9
168 0 15 8 18 15 11 24 -8 9 5 10 62 4 119 -14 340 -11 547 7 257 22 273 38
34 33 -100 -1 -180 -6 -177 -10 2 -5 -7 -8 -21 -8 -13 0 -27 6 -29 13 -4 9 -6
9 -6 0 -1 -15 -61 -18 -61 -4 0 6 8 10 18 11 9 1 49 4 87 7 39 3 185 5 325 4
145 0 333 6 435 14 113 10 344 16 623 18 l442 2 0 -25 0 -25 -335 3 c-277 3
-335 1 -335 -10 0 -8 5 -19 12 -26 9 -9 -2 -12 -50 -12 -46 0 -63 -4 -70 -16
-8 -15 -14 -14 -47 12 -37 28 -43 29 -167 33 -70 1 -128 -1 -128 -5 0 -5 37
-9 82 -9 58 0 83 -4 86 -13 3 -11 -27 -12 -164 -6 -93 3 -177 11 -186 15 -21
11 -65 12 -72 0 -3 -4 16 -20 43 -35 48 -26 52 -26 241 -26 l191 0 -20 26
c-12 15 -21 31 -21 35 0 28 107 -14 133 -51 15 -21 15 -21 36 5 18 24 26 27
78 24 43 -3 66 -10 87 -27 l30 -24 278 8 c206 5 278 4 278 -5 0 -15 -710 -23
-795 -8 l-40 7 40 -19 c37 -18 65 -20 406 -20 l366 -1 27 23 27 23 -50 33
c-28 18 -53 37 -57 42 -9 16 45 -1 107 -33 l56 -29 376 1 375 1 72 -36 c40
-20 74 -34 77 -31 3 3 -48 31 -113 63 l-118 58 50 3 51 3 -11 33 c-9 30 -14
33 -79 45 -50 9 -72 10 -80 2 -13 -13 -313 -13 -362 -1 -28 7 -27 8 13 9 23 0
54 9 69 18 24 16 26 16 38 0 10 -14 30 -17 126 -17 63 0 108 4 101 8 -9 7 -7
13 9 28 28 25 59 87 59 118 0 13 6 27 13 30 6 4 -3 4 -21 1 l-34 -5 4 48 3 47
-40 6 -40 5 28 12 c16 7 36 12 45 12 15 0 15 1 -1 17 -11 11 -31 17 -54 16
-30 -2 -34 0 -18 7 11 5 16 9 10 9 -7 1 -9 620 -8 1841 1 1126 -2 1840 -8
1840 -5 0 -9 -33 -9 -72 l0 -73 -60 -28 c-33 -15 -60 -32 -60 -38 0 -6 15 -2
33 10 43 26 87 43 87 32 0 -5 -24 -19 -52 -31 -73 -31 -155 -84 -207 -134 -41
-38 -80 -104 -81 -134 0 -23 17 -3 23 26 6 27 12 31 93 51 47 12 88 20 90 19
1 -2 -11 -25 -27 -51 -16 -26 -37 -67 -46 -90 -22 -58 -33 -67 -33 -29 0 19 7
35 18 42 16 11 16 11 -1 6 -12 -4 -21 2 -29 19 -6 14 -14 24 -17 22 -3 -1 -18
-9 -33 -16 -16 -8 -28 -19 -28 -25 0 -5 -7 -1 -15 10 -8 10 -15 35 -15 54 0
31 11 45 101 134 55 54 95 95 88 91 -9 -6 -10 0 -6 21 6 27 6 27 -5 7 -6 -13
-15 -23 -19 -23 -5 0 -27 -16 -49 -36 -47 -42 -48 -38 -12 36 24 49 39 63 142
133 120 81 141 97 125 96 -6 0 -64 -38 -130 -84z m-642 -152 c-7 -2 -21 -2
-30 0 -10 3 -4 5 12 5 17 0 24 -2 18 -5z m70 -10 c-7 -2 -19 -2 -25 0 -7 3 -2
5 12 5 14 0 19 -2 13 -5z m44 -9 c-3 -3 -12 -4 -19 -1 -8 3 -5 6 6 6 11 1 17
-2 13 -5z m61 -23 c20 -11 51 -32 67 -47 l30 -26 -35 24 c-19 14 -53 35 -75
46 -22 12 -36 21 -32 22 4 0 24 -9 45 -19z m587 -87 c-11 -8 -50 -36 -87 -63
l-67 -49 20 41 c18 36 30 46 82 68 63 27 88 28 52 3z m15 -23 c0 -20 -137
-138 -147 -127 -6 5 131 146 142 146 3 0 5 -8 5 -19z m-508 -32 c17 -9 18 -13
7 -20 -16 -10 -91 -10 -134 1 l-30 7 25 11 c33 14 106 15 132 1z m500 -49 c-4
-35 -7 -40 -29 -40 -33 0 -81 -26 -127 -69 -33 -30 -36 -32 -21 -9 9 15 16 29
16 32 -1 4 1 6 4 5 6 0 24 13 104 79 29 23 54 42 55 42 1 0 0 -18 -2 -40z
m-446 4 c18 -14 18 -15 -6 -8 -31 8 -50 24 -29 24 8 0 24 -7 35 -16z m32 -61
c27 -17 47 -41 57 -65 25 -63 18 -62 -43 1 -43 46 -64 61 -85 61 -30 0 -32 -3
-16 -32 9 -16 8 -19 -3 -13 -34 20 -37 26 -26 51 15 33 62 32 116 -3z m159
-53 c-9 -41 4 -195 14 -178 5 7 9 24 9 37 0 36 60 86 132 110 80 27 108 27
108 1 0 -24 -36 -35 -73 -21 -24 9 -31 6 -77 -37 l-50 -47 14 -45 c8 -25 21
-61 29 -81 16 -35 16 -35 -13 -46 -26 -10 -29 -9 -41 19 -14 35 -14 79 0 107
15 27 14 36 -4 21 -8 -7 -17 -27 -21 -46 l-6 -34 -34 71 c-19 39 -37 89 -40
111 -6 36 -4 42 22 64 37 30 38 30 31 -6z m-131 -40 c29 -27 49 -50 45 -50
-15 0 -101 51 -101 60 0 5 -3 15 -6 24 -11 28 7 18 62 -34z m383 -215 c-11
-11 -23 -12 -57 -3 l-42 11 26 46 c15 25 36 57 48 69 l21 24 9 -67 c7 -52 6
-70 -5 -80z m-291 72 c23 -22 31 -46 10 -30 -7 5 -26 10 -43 12 -29 3 -54 25
-55 48 0 17 58 -3 88 -30z m-3476 -114 c-32 -38 -73 -89 -91 -115 -18 -27 -34
-48 -37 -48 -10 0 83 128 129 178 70 74 70 65 -1 -15z m3731 18 c4 -4 -2 -16
-13 -26 -11 -10 -20 -25 -20 -34 0 -9 12 1 26 22 29 44 48 44 52 0 2 -24 -1
-32 -17 -36 -20 -5 -20 -4 -5 25 20 39 11 48 -12 11 -19 -29 -63 -72 -76 -73
-5 0 -8 30 -8 66 l0 66 33 -7 c17 -4 35 -10 40 -14z m-3886 -78 c-3 -10 -5 -2
-5 17 0 19 2 27 5 18 2 -10 2 -26 0 -35z m3791 -19 l-3 -49 -22 45 c-21 42
-21 46 -6 58 25 18 35 1 31 -54z m142 -84 c0 -77 -3 -100 -13 -100 -22 0 -43
30 -66 94 -18 47 -19 61 -9 68 17 12 71 37 81 38 4 0 7 -45 7 -100z m-203 28
c28 -29 113 -202 113 -230 0 -6 -27 19 -60 55 -34 36 -69 69 -80 72 -11 4 -35
-4 -59 -20 -32 -20 -41 -31 -41 -53 0 -15 5 -33 11 -39 8 -8 -4 -15 -42 -26
-29 -9 -54 -15 -55 -14 -2 1 3 36 11 78 18 108 44 160 96 196 49 33 57 32 106
-19z m-3783 13 c17 -18 30 -44 33 -70 8 -56 -11 -53 -27 4 -7 25 -22 57 -32
70 -27 34 -8 31 26 -4z m3901 -69 c13 -36 18 -68 14 -87 l-6 -30 -22 50 c-27
60 -36 99 -27 121 9 23 17 12 41 -54z m-348 6 c-3 -8 -6 -5 -6 6 -1 11 2 17 5
13 3 -3 4 -12 1 -19z m-3598 -117 c10 -14 24 -37 30 -51 14 -27 -21 8 -119
121 l-55 64 63 -54 c34 -29 70 -65 81 -80z m4031 -80 c0 -55 -4 -91 -9 -85
-10 11 -41 146 -41 180 0 22 2 23 25 12 24 -11 25 -15 25 -107z m-144 38 l29
-31 -32 16 c-18 9 -45 16 -60 15 l-28 -1 25 -8 c23 -7 22 -8 -10 -9 l-35 0 28
24 c36 32 47 31 83 -6z m-3659 -5 c-3 -3 -12 -4 -19 -1 -8 3 -5 6 6 6 11 1 17
-2 13 -5z m3503 -84 l-7 -55 -2 51 c0 28 2 54 6 57 10 11 10 6 3 -53z m240
-68 c0 -18 -58 -54 -162 -100 -5 -2 2 25 15 60 18 51 26 62 42 60 20 -3 20 -3
1 11 -18 14 -18 15 -1 45 l19 31 43 -43 c24 -24 43 -53 43 -64z m-3820 84 c0
-2 -13 -35 -30 -73 l-29 -68 -1 40 c0 22 -3 50 -6 62 -5 18 -1 25 17 32 26 10
49 14 49 7z m-83 -123 c-2 -16 -4 -5 -4 22 0 28 2 40 4 28 2 -13 2 -35 0 -50z
m3433 44 c0 -2 -13 -13 -30 -25 -17 -13 -27 -17 -24 -8 3 7 15 18 27 24 26 13
27 13 27 9z m-82 -117 c-7 -10 -14 -17 -17 -15 -4 4 18 35 25 35 2 0 -1 -9 -8
-20z m-27 -66 c-5 -16 -10 -21 -10 -12 -1 18 10 51 15 45 2 -1 -1 -16 -5 -33z
m329 21 c0 -2 -10 -9 -22 -15 -22 -11 -22 -10 -4 4 21 17 26 19 26 11z m-3330
-20 c0 -2 -13 -11 -30 -20 -38 -19 -40 -11 -2 9 31 17 32 18 32 11z m2987 -82
c-3 -10 -5 -2 -5 17 0 19 2 27 5 18 2 -10 2 -26 0 -35z m33 27 c0 -5 -2 -10
-4 -10 -3 0 -8 5 -11 10 -3 6 -1 10 4 10 6 0 11 -4 11 -10z m-3510 -62 c0 -14
-19 1 -31 25 -12 22 -12 22 10 3 11 -11 21 -23 21 -28z m167 -5 c-3 -10 -5 -4
-5 12 0 17 2 24 5 18 2 -7 2 -21 0 -30z m3963 -7 c0 -20 -15 -31 -104 -74 -57
-29 -106 -59 -110 -68 -3 -8 -6 -73 -7 -142 0 -87 -3 -120 -9 -104 -5 12 -21
27 -35 34 -25 11 -25 13 -25 124 l0 112 98 51 c53 27 113 59 132 70 46 26 60
26 60 -3z m-1 -188 c1 -94 -2 -149 -8 -143 -5 6 -26 51 -46 100 -20 50 -39 96
-42 103 -3 8 5 12 23 13 16 0 38 4 49 9 12 5 -6 6 -45 4 l-65 -5 65 35 c36 19
66 35 66 36 1 0 2 -68 3 -152z m-3923 75 c-41 -78 -46 -83 -46 -45 0 24 9 42
29 63 41 41 45 36 17 -18z m3814 -25 c5 -13 27 -65 49 -116 l39 -92 -19 -61
c-11 -33 -16 -66 -12 -71 4 -7 1 -8 -6 -4 -8 5 -14 0 -18 -13 -5 -20 -7 -20
-40 14 -19 19 -47 42 -63 50 l-30 16 0 131 c0 108 3 135 17 150 23 26 71 24
83 -4z m105 -426 c-2 -3 -13 2 -24 12 -20 18 -18 33 13 141 10 38 11 35 14
-54 1 -51 0 -96 -3 -99z m-335 152 c23 -9 39 -18 37 -20 -2 -2 -25 5 -53 16
-27 10 -43 19 -37 20 7 0 31 -7 53 -16z m-3911 -58 c-3 -3 -18 12 -33 32 l-29
37 34 -32 c18 -18 31 -35 28 -37z m2131 49 c14 -8 48 -14 75 -15 63 0 113 -26
183 -93 50 -48 112 -138 112 -162 0 -5 -14 15 -31 45 -66 120 -182 204 -275
198 -33 -2 -53 2 -60 11 -6 8 -35 16 -65 18 -47 3 -61 0 -108 -28 -30 -17 -49
-34 -43 -38 6 -3 -6 -12 -25 -18 l-37 -11 40 34 c82 70 174 93 234 59z m1860
-25 c8 -5 11 -10 5 -10 -5 0 -17 5 -25 10 -8 5 -10 10 -5 10 6 0 17 -5 25 -10z
m-3720 -110 c-7 -103 -7 -103 -8 -29 -2 66 6 146 13 137 1 -2 -1 -50 -5 -108z
m3742 81 c30 -13 133 -110 125 -118 -4 -3 -27 13 -52 36 -24 22 -51 41 -60 41
-8 0 -15 6 -16 13 0 10 -2 10 -6 0 -8 -22 -30 -14 -35 12 -6 27 5 31 44 16z
m-1854 -18 c-10 -2 -26 -2 -35 0 -10 3 -2 5 17 5 19 0 27 -2 18 -5z m-73 -16
c-3 -7 33 -36 90 -72 193 -122 215 -137 226 -158 11 -21 10 -21 -14 2 -19 17
-52 29 -121 42 -82 15 -176 50 -176 64 0 3 17 -3 38 -14 34 -17 192 -54 200
-46 2 1 -19 15 -45 30 -26 16 -87 54 -134 86 l-86 57 -24 -21 c-14 -12 -10 -7
8 11 35 34 45 40 38 19z m2102 -9 c-3 -8 -6 -5 -6 6 -1 11 2 17 5 13 3 -3 4
-12 1 -19z m33 -70 c0 -19 -8 -22 -34 -12 -16 6 -22 45 -9 57 10 11 43 -24 43
-45z m-3972 -82 c-3 -77 -4 -80 -30 -87 -27 -7 -28 -6 -28 28 0 19 10 68 23
108 18 59 24 69 30 52 4 -11 6 -57 5 -101z m1660 107 c-10 -2 -28 -2 -40 0
-13 2 -5 4 17 4 22 1 32 -1 23 -4z m-3 -23 c13 -6 4 -7 -26 -3 -86 10 -173
-40 -210 -122 -10 -22 -19 -34 -19 -27 -1 45 69 127 130 151 31 12 98 13 125
1z m102 3 c-4 -3 2 -12 13 -20 11 -8 20 -22 19 -31 0 -12 -3 -11 -9 6 -6 13
-18 22 -31 22 -18 0 -19 2 -9 15 7 8 15 15 18 15 3 0 2 -3 -1 -7z m2242 -50
c0 -27 -4 -57 -8 -68 -7 -18 -9 -18 -24 8 -51 82 -49 77 -32 77 8 0 23 -17 34
-37 21 -40 28 -32 11 11 -10 27 -4 56 11 56 5 0 9 -21 8 -47z m-4429 -10 c0
-32 -5 -28 -14 10 -4 19 -3 26 4 22 5 -3 10 -18 10 -32z m2155 16 c-4 -6 2
-20 13 -32 11 -12 27 -35 35 -52 23 -46 69 -84 130 -109 l56 -23 -52 -21 c-30
-13 -71 -22 -97 -21 -25 1 -36 3 -25 6 11 2 36 9 55 15 33 11 34 11 11 20 -48
17 -151 -17 -151 -51 0 -30 -22 -41 -50 -26 -14 8 -21 14 -16 15 19 0 -27 39
-54 45 l-27 6 13 62 c7 34 16 70 19 79 6 16 62 48 83 48 5 0 20 11 33 25 26
26 34 32 24 14z m2218 -58 c20 -37 37 -71 37 -75 0 -4 -15 1 -32 10 -18 10
-57 25 -86 34 -29 9 -54 21 -54 26 -2 9 78 74 91 74 4 0 23 -31 44 -69z m-206
43 c-3 -3 -12 -4 -19 -1 -8 3 -5 6 6 6 11 1 17 -2 13 -5z m-1894 -102 c50 -54
98 -63 201 -35 36 9 74 13 90 9 35 -9 56 -58 55 -128 -2 -52 -2 -52 -9 16 -10
102 -45 124 -140 91 -54 -19 -113 -19 -149 -1 -29 16 -91 80 -91 96 0 4 -2 17
-5 27 -3 10 2 2 11 -17 9 -19 25 -46 37 -58z m1790 81 c-7 -2 -19 -2 -25 0 -7
3 -2 5 12 5 14 0 19 -2 13 -5z m-43 -6 c0 -2 -15 -14 -32 -27 l-33 -23 24 26
c21 23 41 35 41 24z m136 -25 c-8 -9 -18 -13 -22 -10 -8 9 19 37 29 31 5 -3 2
-12 -7 -21z m-2193 -14 c-11 -13 -39 -51 -62 -85 -22 -34 -45 -64 -51 -68 -5
-3 18 35 51 85 34 49 66 90 72 90 6 0 1 -10 -10 -22z m724 -20 c-3 -8 -6 -5
-6 6 -1 11 2 17 5 13 3 -3 4 -12 1 -19z m1633 -11 c30 -11 67 -33 82 -48 27
-27 28 -30 28 -143 0 -64 -3 -116 -7 -116 -3 0 -22 12 -41 27 -31 24 -36 25
-47 10 -10 -13 -15 -3 -34 61 -12 43 -42 111 -66 151 -25 41 -42 78 -39 82 6
11 55 1 124 -24z m-171 9 c38 -20 51 -55 51 -141 0 -69 2 -75 35 -115 19 -23
35 -44 35 -46 0 -10 -57 26 -97 61 l-42 36 5 93 c5 81 3 94 -11 100 -9 3 -26
1 -38 -5 -21 -9 -20 -9 2 10 28 25 25 25 60 7z m-3984 -38 c-4 -18 -14 -44
-22 -58 -8 -14 -12 -18 -9 -9 2 10 10 35 17 58 15 49 23 54 14 9z m485 22
c-34 -11 -60 -11 -35 0 11 5 29 8 40 8 16 0 15 -2 -5 -8z m2047 -47 c-3 -10
-5 -2 -5 17 0 19 2 27 5 18 2 -10 2 -26 0 -35z m-2591 -25 c8 -16 13 -28 11
-28 -6 0 -57 79 -57 87 1 10 28 -25 46 -59z m1721 -15 c-2 -16 -4 -3 -4 27 0
30 2 43 4 28 2 -16 2 -40 0 -55z m-1313 22 c-1 -19 -7 -41 -14 -50 -16 -19
-46 -19 -54 0 -4 13 -2 14 14 5 27 -15 38 -6 32 25 -2 14 1 32 8 40 16 19 15
21 14 -20z m-64 12 c0 -2 -16 -19 -37 -38 -37 -35 -37 -23 0 19 18 19 37 29
37 19z m2214 -97 c4 -30 3 -36 -3 -20 -12 37 -22 109 -12 85 5 -11 11 -40 15
-65z m-181 63 c-22 -8 -14 -23 11 -23 27 0 36 -16 36 -64 0 -44 -26 -79 -55
-73 -21 3 -24 -1 -30 -42 -10 -63 -37 -113 -87 -156 -52 -45 -100 -70 -151
-79 -34 -6 -41 -4 -65 22 -31 33 -102 151 -102 168 0 7 11 15 24 18 24 6 36
30 36 74 0 13 6 22 15 22 8 0 15 -4 15 -9 0 -5 12 -23 26 -40 49 -59 130 -34
136 41 3 38 7 45 43 65 22 13 42 23 45 23 3 0 14 -14 24 -31 14 -24 20 -28 32
-18 8 6 14 25 14 41 0 35 16 68 33 67 9 0 9 -2 0 -6z m224 -30 c-3 -10 -5 -4
-5 12 0 17 2 24 5 18 2 -7 2 -21 0 -30z m-2379 -55 c11 -11 -16 -98 -30 -98
-4 0 -8 42 -8 93 1 90 1 91 15 53 7 -21 18 -43 23 -48z m1547 15 c-51 -77 -56
-112 -25 -173 11 -22 18 -40 15 -40 -12 0 -45 83 -45 113 0 32 12 54 72 140
40 56 27 24 -17 -40z m2404 -27 c28 -87 35 -126 22 -126 -6 0 -11 4 -11 9 0 5
-17 31 -38 58 -37 47 -38 51 -33 135 1 20 2 20 21 3 10 -9 28 -45 39 -79z
m-3653 69 c-12 -9 -39 -15 -65 -14 l-46 1 48 8 c27 5 52 11 55 14 3 3 10 6 16
6 6 0 2 -7 -8 -15z m-174 -159 c-11 -11 -27 -34 -35 -51 -20 -37 -22 -14 -6
51 10 38 9 47 -5 63 -15 17 -14 19 21 45 l38 26 3 -56 c2 -45 -1 -61 -16 -78z
m140 113 c62 -17 78 -25 78 -40 0 -14 -7 -19 -27 -19 -16 0 -53 -7 -83 -15
-30 -8 -58 -15 -62 -15 -5 0 -8 25 -8 55 0 36 4 55 12 55 6 0 47 -9 90 -21z
m1423 3 c-3 -3 -11 0 -18 7 -9 10 -8 11 6 5 10 -3 15 -9 12 -12z m722 -34 c7
-16 11 -28 9 -28 -8 0 -36 58 -35 72 0 9 2 8 6 -2 3 -8 12 -27 20 -42z m-492
22 c-11 -5 -28 -11 -37 -14 -10 -3 -18 -10 -18 -16 0 -14 53 -13 68 2 19 19
28 -21 11 -51 -12 -21 -22 -26 -54 -26 -36 0 -42 4 -60 38 l-20 38 24 20 c15
12 38 19 65 18 32 0 37 -2 21 -9z m-211 -16 c23 -9 20 -24 -5 -24 -11 0 -17
-4 -14 -10 3 -5 19 -10 36 -10 24 0 29 -4 29 -24 0 -27 -26 -59 -44 -53 -16 5
-36 48 -36 80 0 19 -4 27 -12 24 -7 -2 -12 -13 -10 -23 2 -14 -1 -13 -12 6
-11 19 -11 27 -3 32 15 9 50 10 71 2z m-1644 -24 c16 -9 17 -14 5 -57 -20 -77
-36 -173 -30 -182 8 -15 -31 -97 -50 -105 -16 -6 -17 1 -11 91 7 96 26 190 48
238 13 28 13 28 38 15z m2220 -13 c0 -6 -22 -50 -50 -96 -54 -93 -69 -153 -52
-209 7 -23 8 -32 1 -25 -6 6 -13 29 -16 51 -7 54 16 125 67 204 22 33 40 67
40 75 0 7 2 13 5 13 3 0 5 -6 5 -13z m146 -145 c10 -54 -3 -91 -56 -154 -27
-33 -50 -55 -50 -49 0 5 18 31 41 57 71 82 74 113 24 210 -19 37 -35 70 -35
73 1 17 70 -109 76 -137z m94 20 c0 -10 -6 -5 -16 13 -8 17 -30 46 -47 66 -18
19 -11 13 16 -14 26 -26 47 -56 47 -65z m-856 82 c3 -8 2 -12 -4 -9 -6 3 -10
10 -10 16 0 14 7 11 14 -7z m-1779 -22 c-3 -3 -11 0 -18 7 -9 10 -8 11 6 5 10
-3 15 -9 12 -12z m3945 -16 c0 -2 -7 -7 -16 -10 -8 -3 -12 -2 -9 4 6 10 25 14
25 6z m-1559 -33 c-12 -20 -14 -14 -5 12 4 9 9 14 11 11 3 -2 0 -13 -6 -23z
m-2131 -81 l0 -99 -55 -10 c-64 -11 -66 -7 -30 52 13 22 25 53 25 68 0 30 34
87 51 87 5 0 9 -44 9 -98z m3850 78 c0 -5 -4 -10 -10 -10 -5 0 -10 5 -10 10 0
6 5 10 10 10 6 0 10 -4 10 -10z m-1470 -110 l-11 -25 6 25 c2 14 6 39 6 55 l2
30 4 -30 c2 -17 -1 -42 -7 -55z m-966 9 c-8 -17 -9 -13 -9 21 0 34 1 38 9 21
5 -13 5 -29 0 -42z m-1492 19 c-9 -9 -12 -7 -12 12 0 19 3 21 12 12 9 -9 9
-15 0 -24z m3818 -25 c0 -55 -2 -59 -34 -80 l-34 -22 -4 61 c-3 61 4 81 32 91
36 13 40 8 40 -50z m43 35 c7 -13 27 -46 45 -75 l31 -52 -45 1 c-34 0 -57 -7
-94 -30 -28 -17 -50 -29 -50 -26 0 17 25 48 52 64 30 18 31 21 29 79 -3 65 8
78 32 39z m-1799 -119 c7 -32 5 -39 -21 -58 -72 -56 -113 -103 -113 -129 0
-28 -34 -203 -46 -237 -3 -11 -22 -59 -40 -106 -46 -117 -47 -192 -3 -291 21
-49 28 -73 20 -81 -15 -15 -41 10 -41 38 0 13 -13 52 -30 87 -40 84 -39 126 6
241 65 166 78 227 78 379 0 134 1 137 21 132 16 -4 32 7 66 43 25 26 54 63 65
81 l19 34 6 -49 c3 -26 9 -64 13 -84z m1975 59 c-1 -85 -6 -80 -11 10 -3 34
-1 62 4 62 4 0 8 -33 7 -72z m-55 33 c17 -33 58 -173 52 -179 -12 -11 -146
176 -146 203 0 3 18 5 40 5 33 0 42 -4 54 -29z m-4129 -17 c16 -25 22 -144 6
-144 -5 0 -15 30 -22 68 -10 52 -14 62 -19 42 -6 -24 -6 -24 -18 9 -16 46 -16
49 13 49 14 0 30 -10 40 -24z m1744 -40 c-7 -9 -16 -37 -20 -63 l-6 -46 -2 44
c-1 29 5 51 16 63 20 22 31 24 12 2z m772 -7 c-10 -9 -11 -8 -5 6 3 10 9 15
12 12 3 -3 0 -11 -7 -18z m989 -70 c32 -16 51 -33 64 -61 19 -39 19 -44 2
-225 -30 -319 -99 -738 -126 -765 -15 -15 -13 2 15 126 14 61 25 112 25 114 0
10 -150 3 -156 -7 -4 -6 -12 -32 -19 -58 -7 -25 -14 -37 -14 -26 -1 11 3 35 8
53 l10 32 -149 0 c-157 0 -298 14 -315 32 -7 7 -2 9 15 5 94 -21 235 -29 364
-22 78 5 167 9 199 9 42 1 58 5 62 16 20 68 60 387 52 426 -2 13 0 25 5 26 5
2 12 60 15 129 l6 125 -32 27 c-51 43 -98 50 -271 44 -169 -7 -254 -24 -310
-62 -42 -29 -92 -107 -119 -186 -22 -65 -57 -133 -45 -89 17 63 67 190 94 237
33 58 70 82 159 103 152 36 386 34 461 -3z m-3280 -111 c0 -109 -3 -129 -21
-160 -20 -35 -39 -40 -39 -10 0 15 -37 94 -44 94 -2 0 7 -26 19 -57 24 -61 41
-122 31 -112 -3 3 -14 30 -24 59 -24 69 -46 84 -73 51 -11 -13 -19 -34 -17
-45 2 -17 9 -21 39 -18 34 2 36 0 47 -36 18 -60 14 -171 -7 -211 -21 -40 -26
-35 -36 42 -3 32 -13 74 -21 92 -8 19 -14 50 -14 69 0 19 -5 38 -11 42 -15 9
-7 61 24 169 14 50 28 102 31 117 6 29 20 35 79 37 l37 1 0 -124z m1402 95 c2
-17 1 -28 -4 -25 -8 5 -12 54 -4 54 2 0 6 -13 8 -29z m326 -34 c-14 -42 -19
-73 -14 -92 5 -21 10 -25 16 -15 11 18 22 -59 18 -125 l-3 -50 -24 85 c-13 47
-28 88 -34 92 -6 3 -22 -2 -35 -13 -14 -11 -27 -17 -30 -15 -2 3 15 40 38 83
70 129 101 151 68 50z m330 -3 l32 -41 -38 -54 c-21 -30 -40 -54 -42 -54 -3 0
-28 24 -56 53 l-51 53 56 49 c31 26 59 45 62 42 3 -4 20 -26 37 -48z m-2188
33 c0 -17 -38 -148 -45 -155 -10 -10 7 143 18 156 12 16 27 16 27 -1z m2453
-33 c34 -18 34 -28 1 -42 -40 -19 -77 -110 -82 -205 l-5 -79 -34 7 c-24 4 -33
3 -28 -4 3 -6 12 -11 19 -11 16 0 52 -38 66 -70 8 -20 9 -17 3 20 -12 71 -9
181 6 233 15 52 72 122 93 115 7 -2 25 -28 40 -58 32 -64 161 -449 189 -565
24 -99 36 -273 21 -302 -15 -28 -76 -42 -257 -58 -254 -23 -412 -28 -397 -14
17 18 15 80 -3 105 -14 21 -13 22 43 28 31 4 124 23 207 42 172 41 173 41 264
-40 29 -25 54 -46 56 -46 11 0 3 12 -32 52 -39 43 -37 43 32 0 25 -16 35 -19
26 -9 -19 24 -79 59 -89 53 -5 -3 -30 6 -57 19 -27 14 -58 25 -69 25 -21 1
-21 1 -2 15 25 19 102 19 155 0 56 -19 52 -11 -11 21 -56 29 -56 30 13 43 44
9 44 9 8 10 -20 1 -56 -5 -82 -13 -43 -13 -46 -12 -50 6 -3 11 8 65 24 120 17
55 29 102 26 104 -2 3 -17 -31 -32 -73 -28 -79 -45 -109 -45 -82 0 33 -99 218
-126 235 -31 21 -118 25 -149 7 -17 -10 -13 -11 20 -6 22 2 51 0 65 -5 14 -5
30 -10 35 -12 15 -2 46 -32 57 -55 5 -11 -4 -4 -21 15 -39 45 -40 29 -1 -20
17 -21 30 -45 30 -54 0 -28 -68 -125 -102 -146 -23 -14 -52 -20 -93 -21 l-60
-1 45 -14 c71 -23 111 -11 180 53 33 30 60 52 60 47 0 -4 -12 -51 -26 -105
-23 -84 -30 -98 -50 -102 -13 -2 -30 3 -39 12 -16 15 -17 14 -10 -6 5 -18 2
-23 -12 -23 -10 0 -27 -3 -38 -5 -13 -4 -38 8 -74 35 -65 50 -83 43 -23 -9
l44 -38 -94 -14 c-108 -16 -128 -15 -169 1 l-30 13 27 28 27 28 -33 83 c-46
114 -46 185 -1 287 40 89 56 143 72 236 14 83 22 101 48 108 13 3 31 -7 57
-34 21 -22 44 -39 51 -39 7 0 27 22 45 50 24 36 35 46 44 39 7 -6 23 -9 36 -7
18 2 27 15 40 53 9 28 17 44 18 38 0 -7 8 -13 18 -12 10 0 12 3 5 6 -9 3 -10
10 -3 23 9 16 15 17 47 8 21 -6 50 -17 66 -24z m-809 0 c3 -8 2 -12 -4 -9 -6
3 -10 10 -10 16 0 14 7 11 14 -7z m1895 -79 c-1 -73 -6 -62 -11 23 -3 34 -1
57 4 50 4 -7 7 -40 7 -73z m-3716 6 c47 -73 72 -139 81 -211 l6 -55 -34 86
c-18 48 -49 117 -70 153 -20 37 -36 71 -36 76 0 22 17 6 53 -49z m2053 22 c-8
-15 -15 -22 -16 -15 0 17 20 55 27 49 2 -3 -2 -18 -11 -34z m-121 -3 c-3 -5
-12 -10 -18 -10 -7 0 -30 -9 -52 -20 -28 -14 -35 -16 -24 -4 9 8 34 22 55 29
48 17 47 17 39 5z m265 -14 c0 -3 -4 -8 -10 -11 -5 -3 -10 -1 -10 4 0 6 5 11
10 11 6 0 10 -2 10 -4z m-287 -57 c-8 -28 -12 -53 -10 -56 3 -3 18 4 34 14 15
11 33 23 40 27 14 8 63 -136 63 -184 0 -16 -14 -64 -31 -107 -17 -43 -33 -102
-36 -130 -5 -46 -1 -62 29 -125 28 -59 34 -81 30 -116 -5 -51 -4 -51 -107 13
-87 55 -110 78 -130 134 -23 65 -19 101 25 231 48 144 51 174 8 90 -41 -78
-45 -63 -23 77 21 135 28 151 67 168 54 23 57 20 41 -36z m-124 -134 c-33
-171 -41 -202 -64 -265 -9 -25 -17 -67 -17 -95 0 -39 -6 -57 -26 -80 -14 -16
-27 -30 -29 -30 -2 0 -14 29 -27 65 -13 36 -33 83 -45 105 -12 21 -21 48 -20
60 0 11 29 61 64 110 35 50 92 134 127 187 34 53 63 96 64 95 1 -1 -12 -69
-27 -152z m1918 -2 c-2 -21 -4 -4 -4 37 0 41 2 58 4 38 2 -21 2 -55 0 -75z
m-3693 -36 c6 -39 18 -59 61 -108 32 -36 62 -83 75 -115 30 -80 24 -86 -12
-13 -18 37 -55 87 -87 118 -54 53 -56 56 -57 110 0 31 -3 72 -7 91 l-7 35 14
-35 c7 -19 16 -57 20 -83z m191 82 c8 -25 7 -25 -28 -34 -29 -8 -34 3 -17 36
14 25 37 24 45 -2z m3400 -56 c-6 -5 -73 -6 -150 -2 l-140 5 150 2 c82 1 145
-1 140 -5z m-2146 -17 c-4 -4 -677 -41 -873 -49 -36 -1 -60 2 -63 9 -5 15 59
25 94 15 16 -4 136 -2 268 5 342 19 369 20 479 22 55 1 97 0 95 -2z m2561
-116 c-4 -63 -8 -99 -9 -80 -4 58 -9 74 -28 88 -10 7 -16 21 -15 30 4 17 52
86 56 80 2 -2 0 -55 -4 -118z m-2543 103 c-4 -3 -2 -12 3 -18 18 -21 71 -226
65 -249 -5 -15 -4 -17 3 -8 7 11 12 6 21 -19 13 -39 14 -59 1 -39 -5 8 -10 13
-10 10 0 -13 59 -184 59 -173 1 6 -8 40 -19 74 -10 35 -17 65 -15 67 5 5 49
-138 48 -158 -1 -8 14 -66 33 -129 38 -127 41 -149 19 -157 -22 -9 -313 15
-355 28 -19 6 -60 16 -90 23 -50 10 -55 13 -61 43 -6 31 -5 32 27 32 33 0 53
14 35 24 -5 3 -46 9 -92 12 -71 6 -87 4 -98 -10 -11 -13 -11 -22 -1 -46 7 -17
10 -33 7 -37 -7 -6 -275 15 -289 23 -13 8 -9 30 7 44 24 20 18 47 -16 71 -26
18 -29 26 -23 48 4 14 9 42 10 61 1 19 6 44 10 55 4 11 -10 1 -30 -22 -21 -24
-41 -43 -45 -43 -4 0 -38 91 -76 203 -37 111 -70 207 -72 214 -7 18 7 19 677
53 118 7 226 15 240 20 33 11 35 11 27 3z m1983 -18 c-126 -20 -349 -29 -482
-20 -65 4 -118 10 -118 13 0 4 98 6 217 4 120 -1 256 1 303 6 127 14 178 11
80 -3z m237 -92 c-2 -21 -4 -4 -4 37 0 41 2 58 4 38 2 -21 2 -55 0 -75z
m-3564 49 c5 -28 3 -31 -9 -21 -8 6 -25 8 -40 5 -17 -5 -23 -3 -19 4 3 5 17
10 31 10 18 0 24 5 24 22 0 30 7 19 13 -20z m-151 -31 c25 -16 55 -42 67 -59
25 -35 76 -145 85 -182 6 -26 2 -18 -57 107 -34 72 -53 91 -127 132 -36 20
-48 31 -34 31 11 0 41 -13 66 -29z m542 -27 c12 -30 6 -39 -40 -58 -25 -10
-72 -39 -106 -63 -53 -39 -58 -41 -40 -17 35 49 153 154 172 154 4 0 11 -7 14
-16z m3162 -111 c-4 -43 -18 -130 -31 -193 -28 -131 -26 -101 4 75 12 66 21
137 21 158 0 20 3 37 6 37 4 0 4 -35 0 -77z m-3147 53 c-8 -8 -79 -35 -79 -30
0 6 60 33 74 34 5 0 7 -2 5 -4z m-504 -37 c43 -38 66 -76 41 -66 -9 4 -16 2
-16 -3 0 -6 6 -10 13 -10 16 0 77 -114 77 -144 0 -13 -20 15 -50 68 -28 49
-48 91 -45 94 3 3 -14 25 -37 49 -49 50 -36 58 17 12z m3412 -11 c-3 -8 -6 -5
-6 6 -1 11 2 17 5 13 3 -3 4 -12 1 -19z m-3182 -40 c-25 -55 -54 -157 -56
-193 0 -11 -3 -14 -6 -8 -9 24 16 147 42 200 34 69 51 69 20 1z m309 -2 c3
-13 9 -31 12 -40 5 -13 -2 -16 -36 -16 -37 0 -41 2 -35 20 8 25 8 25 -52 -7
-65 -37 -95 -62 -118 -98 l-19 -30 37 34 c24 23 37 30 37 20 0 -8 -14 -28 -30
-44 -26 -24 -33 -27 -40 -15 -16 26 56 126 115 158 82 46 121 51 129 18z
m2863 -8 c-3 -7 -5 -2 -5 12 0 14 2 19 5 13 2 -7 2 -19 0 -25z m368 7 c82 -22
97 -39 101 -117 l3 -63 -32 59 c-19 36 -33 53 -35 44 -2 -9 4 -30 12 -46 l16
-30 -31 15 c-55 27 -87 22 -111 -17 l-22 -35 27 28 c14 15 35 27 46 27 22 0
100 -49 101 -63 0 -5 -20 -5 -45 -1 -30 4 -45 3 -45 -5 0 -6 -19 -11 -45 -11
-25 0 -45 -4 -45 -8 0 -5 27 -6 61 -4 l60 5 -40 -82 c-23 -44 -45 -81 -50 -81
-5 0 -16 11 -25 25 -10 14 -27 30 -40 35 l-23 8 17 81 c10 45 24 119 31 166
14 97 12 96 114 70z m-3395 -3 c0 -4 -10 -13 -22 -21 -23 -14 -23 -14 -4 8 20
22 26 25 26 13z m3858 -38 c-2 -19 -13 -34 -35 -46 l-31 -19 26 56 c26 57 46
61 40 9z m-307 -61 c-22 -64 -28 -43 -9 37 8 36 14 47 20 36 5 -9 1 -37 -11
-73z m-3643 27 c-17 -27 -33 -50 -35 -50 -6 0 28 64 45 83 25 29 23 19 -10
-33z m3101 -24 c-6 -37 -14 -65 -16 -62 -3 3 0 35 7 71 7 36 14 64 17 62 2 -3
-1 -35 -8 -71z m-3359 13 c0 -5 -11 -3 -25 3 -26 11 -30 19 -18 31 7 8 43 -21
43 -34z m127 -61 c-2 -18 -4 -4 -4 32 0 36 2 50 4 33 2 -18 2 -48 0 -65z m170
70 c-9 -13 -35 -53 -58 -90 -37 -61 -60 -79 -58 -45 0 8 3 7 6 -2 3 -8 17 7
34 39 31 56 76 120 86 120 3 0 -2 -10 -10 -22z m259 -50 c19 -60 19 -65 3
-108 -28 -74 -47 -57 -40 37 1 11 -2 24 -8 27 -6 4 -18 -22 -30 -60 -18 -61
-19 -70 -5 -102 22 -54 17 -51 -21 14 -41 68 -75 101 -85 83 -5 -7 -10 -8 -14
-1 -3 5 1 12 9 16 8 3 12 12 9 21 -4 8 -1 21 5 29 6 7 9 20 6 28 -8 19 12 35
72 58 73 29 77 27 99 -42z m3471 -22 l16 -31 -34 35 c-19 19 -33 39 -31 43 6
12 31 -13 49 -47z m223 22 c-19 -5 -48 -17 -63 -25 -16 -8 -31 -13 -33 -10
-10 9 72 46 101 45 l30 0 -35 -10z m-282 -10 c7 -7 12 -21 12 -32 0 -20 4 -21
150 -18 87 2 150 0 150 -5 0 -29 -40 -227 -48 -235 -5 -5 -47 -8 -93 -6 -80 3
-84 4 -97 31 -7 15 -20 64 -29 110 -8 45 -20 85 -26 89 -6 4 -24 4 -40 1 -27
-6 -29 -4 -22 18 3 13 9 32 11 42 6 20 15 22 32 5z m-4043 -9 c40 -11 40 -12
18 -26 -13 -9 -23 -24 -23 -35 0 -24 -18 -58 -30 -58 -16 0 -11 52 7 72 15 17
15 18 -3 18 -34 0 -66 -30 -61 -56 3 -19 1 -22 -13 -14 -39 21 -25 81 24 100
28 12 35 12 81 -1z m89 -41 c23 -33 9 -36 -22 -5 -21 21 -23 27 -10 27 9 0 24
-10 32 -22z m1715 -20 c-25 -24 -57 -59 -72 -78 -23 -31 -27 -32 -33 -16 -6
15 6 32 57 77 73 67 117 81 48 17z m-1456 -5 c-4 -11 -8 -11 -13 -3 -10 16
-22 -3 -14 -23 3 -8 1 -18 -5 -22 -6 -3 -11 -1 -11 6 0 7 -7 4 -16 -7 -9 -10
-6 -3 6 16 12 19 24 43 27 53 4 13 9 15 19 6 7 -6 10 -17 7 -26z m320 -45 c-3
-16 -9 -28 -14 -28 -11 0 -11 7 -3 50 5 22 9 28 15 19 4 -8 5 -26 2 -41z m70
17 c-17 -36 -38 -51 -48 -35 -5 8 51 70 62 70 2 0 -5 -16 -14 -35z m-638 -5
l16 -30 -33 0 c-30 0 -33 3 -34 30 -2 41 30 41 51 0z m275 22 c0 -12 -30 -52
-40 -52 -4 0 -7 11 -6 24 0 13 4 22 8 20 4 -2 9 0 13 6 7 12 25 13 25 2z
m3690 -46 c0 -21 -4 -27 -16 -22 -8 3 -12 2 -9 -4 3 -6 12 -10 19 -10 8 0 17
-16 20 -36 4 -19 9 -41 12 -48 5 -14 -36 -36 -68 -36 -19 0 -20 4 -13 56 10
84 35 161 46 143 5 -8 9 -27 9 -43z m-2145 34 c3 -6 -2 -13 -12 -16 -86 -28
-123 -49 -147 -82 -21 -30 -26 -33 -32 -18 -9 23 42 85 87 108 38 19 95 23
104 8z m-1786 -30 c11 -24 11 -24 -3 -6 -9 11 -16 24 -16 30 0 12 5 7 19 -24z
m118 8 c-3 -8 -6 -5 -6 6 -1 11 2 17 5 13 3 -3 4 -12 1 -19z m179 -13 c23 -36
65 -155 59 -166 -4 -5 -32 -9 -64 -9 l-59 0 13 68 c11 56 11 70 -1 83 -12 13
-11 18 3 32 23 23 30 22 49 -8z m53 -22 c34 -67 51 -115 40 -111 -8 3 -69 131
-69 145 0 12 13 -3 29 -34z m1554 -10 c70 -36 106 -49 152 -53 59 -5 59 -5 68
-43 15 -64 8 -70 -81 -62 -42 4 -105 18 -138 31 -48 19 -71 23 -105 18 -53 -9
-46 9 15 36 32 15 36 19 18 19 -26 1 -57 -13 -87 -39 -11 -10 -35 -20 -53 -22
l-33 -5 35 33 c19 18 54 43 78 55 24 12 38 24 31 26 -21 7 -133 -49 -158 -79
-40 -47 -47 -28 -10 24 32 44 125 105 163 107 7 1 55 -20 105 -46z m-2006 -19
c11 -7 12 -13 5 -18 -6 -3 -13 -2 -17 4 -3 5 -15 10 -26 10 -24 0 -24 17 -1
43 17 19 17 19 20 -4 2 -13 11 -28 19 -35z m2043 46 c0 -5 -5 -10 -11 -10 -5
0 -7 5 -4 10 3 6 8 10 11 10 2 0 4 -4 4 -10z m1793 3 c3 -5 8 -47 12 -95 l7
-88 -63 2 -64 2 59 3 58 4 -5 32 c-4 18 -9 55 -13 82 -4 28 -12 53 -18 57 -7
5 -5 8 6 8 9 0 19 -3 21 -7z m126 -74 c-6 -41 -13 -76 -16 -79 -7 -6 7 142 14
153 12 20 13 -5 2 -74z m-359 -2 c-6 -35 -16 -70 -22 -78 -8 -12 -9 -12 -5 1
2 8 10 45 17 82 8 37 16 66 18 63 2 -2 -1 -33 -8 -68z m-1950 28 c0 -5 -5 -3
-10 5 -5 8 -10 20 -10 25 0 6 5 3 10 -5 5 -8 10 -19 10 -25z m2170 -82 c0 -21
-4 -23 -62 -23 l-61 0 20 23 c11 12 33 44 49 71 l28 50 13 -50 c7 -27 13 -59
13 -71z m530 94 c0 -18 -36 -87 -46 -87 -2 0 3 18 12 40 9 22 14 46 11 53 -3
8 1 14 9 14 8 0 14 -9 14 -20z m-4022 4 c25 -16 -16 -21 -158 -21 -165 0 -202
18 -48 23 57 1 123 4 148 5 25 1 51 -2 58 -7z m340 -42 c6 19 15 32 18 29 8
-8 -24 -68 -36 -68 -6 0 -9 21 -8 48 l1 47 6 -45 6 -45 13 34z m-110 -29 c1
-23 0 -23 -8 -5 -5 11 -8 34 -8 50 0 29 0 29 8 5 4 -14 8 -36 8 -50z m29 23
c-3 -10 -5 -2 -5 17 0 19 2 27 5 18 2 -10 2 -26 0 -35z m33 37 c0 -5 -5 -10
-11 -10 -5 0 -7 5 -4 10 3 6 8 10 11 10 2 0 4 -4 4 -10z m2737 -22 c-3 -7 -5
-2 -5 12 0 14 2 19 5 13 2 -7 2 -19 0 -25z m-3037 -15 c0 -39 -49 -216 -61
-224 -8 -5 -50 -8 -94 -7 l-80 3 -21 85 c-12 47 -24 99 -27 117 l-6 32 122 4
c67 1 132 4 145 5 15 1 22 -3 22 -15z m429 4 c8 -11 6 -18 -9 -32 -17 -15 -21
-15 -33 -3 -10 10 -12 20 -5 31 11 20 31 22 47 4z m-733 -29 c8 -26 -4 -90
-17 -83 -5 4 -9 1 -9 -4 0 -7 -30 -11 -80 -11 -88 0 -85 -4 -93 83 l-3 38 98
-2 c87 -1 98 -3 104 -21z m1112 -50 c5 -24 8 -44 6 -46 -1 -2 -18 0 -37 3 -28
5 -36 13 -44 40 -13 41 -9 45 33 45 31 0 33 -3 42 -42z m-411 -41 c-4 -29 -12
-67 -17 -84 -13 -35 -37 -43 -135 -43 -73 0 -74 1 -82 102 l-6 67 109 4 c60 1
115 4 123 5 11 2 12 -9 8 -51z m1238 13 c-40 -10 -265 -12 -265 -2 0 4 66 7
148 8 81 1 134 -2 117 -6z m-1907 -67 c9 -40 9 -41 -21 -47 -17 -3 -32 -4 -34
-2 -3 2 3 30 13 60 19 61 27 59 42 -11z m3740 47 c20 0 22 -5 22 -55 0 -30 -1
-55 -2 -55 -2 0 -25 7 -52 15 -74 23 -96 40 -96 77 l0 31 53 -7 c28 -3 62 -6
75 -6z m-1950 -7 c-27 -2 -69 -2 -95 0 -27 2 -5 3 47 3 52 0 74 -1 48 -3z
m-1843 -13 c-3 -6 -42 -9 -88 -8 l-82 2 80 6 c44 3 84 7 88 8 5 1 5 -2 2 -8z
m1223 -17 c-10 -2 -26 -2 -35 0 -10 3 -2 5 17 5 19 0 27 -2 18 -5z m-1238 -14
c0 -3 -5 -20 -11 -38 -9 -26 -16 -31 -42 -30 -18 1 -24 3 -14 6 26 7 10 23
-23 23 -26 0 -50 22 -50 45 0 3 32 5 70 3 39 -1 70 -5 70 -9z m2710 -53 c8 -2
-58 -4 -147 -5 -89 0 -164 3 -167 7 -4 7 280 5 314 -2z"/>
<path d="M4640 3260 c-6 -11 -8 -20 -6 -20 3 0 10 9 16 20 6 11 8 20 6 20 -3
0 -10 -9 -16 -20z"/>
<path d="M2720 2501 c0 -11 6 -22 13 -25 8 -3 6 -9 -7 -20 -16 -13 -17 -16 -5
-16 16 0 39 39 39 65 0 8 -9 15 -20 15 -13 0 -20 -7 -20 -19z m27 -13 c-3 -8
-6 -5 -6 6 -1 11 2 17 5 13 3 -3 4 -12 1 -19z"/>
<path d="M2363 2337 c-3 -5 -12 -6 -22 -2 -14 5 -14 4 1 -12 14 -13 21 -14 30
-5 7 7 20 12 29 12 10 0 20 4 23 9 3 4 -8 8 -25 7 -17 -1 -33 -5 -36 -9z"/>
<path d="M2350 2271 c-21 -14 -4 -25 38 -25 35 1 36 1 4 -3 -39 -5 -38 -26 0
-31 18 -2 36 6 57 27 17 17 31 32 31 33 0 8 -117 7 -130 -1z"/>
<path d="M2501 1763 c0 -6 -4 -20 -7 -30 -5 -14 -4 -15 5 -7 7 7 11 20 8 30
-3 11 -5 14 -6 7z"/>
<path d="M2420 1370 c0 -5 5 -10 11 -10 5 0 7 5 4 10 -3 6 -8 10 -11 10 -2 0
-4 -4 -4 -10z"/>
<path d="M2948 2013 c6 -2 18 -2 25 0 6 3 1 5 -13 5 -14 0 -19 -2 -12 -5z"/>
<path d="M1598 1025 c-19 -20 15 -25 160 -25 102 0 153 3 146 10 -12 12 -296
26 -306 15z"/>
<path d="M4130 1464 c8 -3 48 -22 88 -41 41 -19 76 -32 79 -29 6 6 -122 65
-157 71 -14 3 -18 2 -10 -1z"/>
<path d="M4173 1373 c-24 -9 -13 -18 22 -18 31 0 33 2 18 13 -18 13 -21 13
-40 5z"/>
<path d="M901 1264 c0 -11 3 -14 6 -6 3 7 2 16 -1 19 -3 4 -6 -2 -5 -13z"/>
<path d="M1135 1100 c-3 -5 -1 -10 4 -10 6 0 11 5 11 10 0 6 -2 10 -4 10 -3 0
-8 -4 -11 -10z"/>
<path d="M715 4987 c-3 -6 -4 -161 -2 -342 l2 -330 3 339 2 339 31 -7 c17 -3
173 -6 345 -6 l314 0 0 -445 0 -444 -35 20 c-26 16 -46 20 -78 16 -75 -9 -149
-26 -161 -36 -6 -5 -39 -12 -71 -14 l-60 -3 61 -2 c33 -1 65 3 70 8 11 11 89
28 165 37 42 4 50 1 80 -26 29 -26 32 -32 19 -41 -10 -6 -11 -10 -2 -10 9 0
12 -66 12 -297 0 -163 2 -294 5 -291 3 3 5 139 5 302 l0 297 33 -6 c17 -4 42
-9 55 -12 12 -3 22 -3 22 0 0 3 -25 11 -55 17 l-55 11 0 460 0 459 1053 1
c578 1 1187 5 1352 9 165 3 -466 7 -1403 8 -1360 2 -1704 -1 -1707 -11z"/>
<path d="M3582 4945 c0 -16 2 -22 5 -12 2 9 2 23 0 30 -3 6 -5 -1 -5 -18z"/>
<path d="M4516 4924 c-4 -14 -5 -28 -3 -31 3 -2 8 8 11 23 4 14 5 28 3 31 -3
2 -8 -8 -11 -23z"/>
<path d="M2405 4265 c0 -363 1 -510 2 -327 2 184 2 481 0 660 -1 180 -2 30 -2
-333z"/>
<path d="M4435 4883 l-18 -28 27 24 c28 26 31 31 17 31 -5 0 -17 -12 -26 -27z"/>
<path d="M2434 4520 c0 -52 1 -74 3 -47 2 26 2 68 0 95 -2 26 -3 4 -3 -48z"/>
<path d="M4015 4311 c-85 -23 -126 -41 -119 -52 3 -5 -1 -6 -8 -4 -8 3 -22 -1
-33 -8 -16 -13 -6 -14 80 -9 54 3 119 11 144 18 l46 14 -40 -5 c-96 -13 -150
-17 -144 -11 11 12 184 46 239 46 44 1 51 3 37 11 -35 20 -128 20 -202 0z"/>
<path d="M3582 3434 c-1 -451 -4 -883 -6 -960 l-5 -139 10 125 c5 69 8 501 6
960 l-2 835 -3 -821z"/>
<path d="M1280 4070 c0 -5 5 -10 11 -10 5 0 7 5 4 10 -3 6 -8 10 -11 10 -2 0
-4 -4 -4 -10z"/>
<path d="M1338 4053 c6 -2 18 -2 25 0 6 3 1 5 -13 5 -14 0 -19 -2 -12 -5z"/>
<path d="M1555 4020 c3 -5 8 -10 11 -10 2 0 4 5 4 10 0 6 -5 10 -11 10 -5 0
-7 -4 -4 -10z"/>
<path d="M1093 4003 c53 -2 141 -2 195 0 53 1 9 3 -98 3 -107 0 -151 -2 -97
-3z"/>
<path d="M1518 3993 c29 -2 74 -2 100 0 26 2 2 3 -53 3 -55 0 -76 -1 -47 -3z"/>
<path d="M4078 3913 c7 -3 16 -2 19 1 4 3 -2 6 -13 5 -11 0 -14 -3 -6 -6z"/>
<path d="M4007 3871 c-20 -22 -33 -42 -28 -46 5 -3 12 4 16 14 3 11 20 32 36
46 17 14 26 25 21 25 -5 0 -25 -18 -45 -39z"/>
<path d="M4121 3906 c2 -2 15 -9 29 -15 24 -11 24 -11 6 3 -16 13 -49 24 -35
12z"/>
<path d="M1695 3862 c-16 -11 -36 -26 -43 -35 -11 -13 -10 -15 7 -10 12 3 18
9 16 14 -8 12 34 32 85 40 l45 6 -40 2 c-23 0 -53 -7 -70 -17z"/>
<path d="M1826 3848 c10 -14 21 -24 23 -22 3 3 -6 15 -18 27 l-24 22 19 -27z"/>
<path d="M3928 3843 c6 -2 18 -2 25 0 6 3 1 5 -13 5 -14 0 -19 -2 -12 -5z"/>
<path d="M3805 3765 l-86 -75 54 0 c29 0 57 -3 62 -8 6 -4 33 -5 60 -2 46 5
43 6 -39 13 -50 4 -92 10 -95 13 -7 6 79 85 124 114 17 11 25 20 18 20 -6 0
-50 -34 -98 -75z"/>
<path d="M1760 3815 c14 -8 32 -14 40 -14 8 0 0 6 -19 14 -42 19 -54 19 -21 0z"/>
<path d="M1610 3811 c0 -5 12 -16 28 -25 l27 -17 -22 19 c-12 11 -19 22 -16
26 4 3 1 6 -5 6 -7 0 -12 -4 -12 -9z"/>
<path d="M4042 3785 c-12 -14 -32 -25 -44 -25 -12 0 -19 -3 -16 -6 10 -9 78 7
72 18 -3 5 0 15 6 23 21 26 5 16 -18 -10z"/>
<path d="M1358 3793 c6 -2 18 -2 25 0 6 3 1 5 -13 5 -14 0 -19 -2 -12 -5z"/>
<path d="M1883 3793 c9 -2 23 -2 30 0 6 3 -1 5 -18 5 -16 0 -22 -2 -12 -5z"/>
<path d="M1315 3780 c-3 -5 -20 -7 -38 -5 l-32 5 29 -10 c22 -7 34 -5 50 5 11
8 15 15 9 15 -7 0 -15 -4 -18 -10z"/>
<path d="M1537 3781 c-11 -4 5 -7 40 -8 41 0 51 2 33 7 -32 10 -50 10 -73 1z"/>
<path d="M1963 3770 c14 -11 33 -20 43 -20 11 0 1 9 -21 20 -22 11 -41 20 -43
20 -3 0 7 -9 21 -20z"/>
<path d="M1188 3773 c7 -3 16 -2 19 1 4 3 -2 6 -13 5 -11 0 -14 -3 -6 -6z"/>
<path d="M1155 3759 c-4 -6 -17 -14 -29 -19 -20 -8 -20 -9 -1 -9 11 -1 26 8
33 19 7 11 10 20 8 20 -3 0 -8 -5 -11 -11z"/>
<path d="M1490 3760 c-9 -6 -10 -10 -3 -10 6 0 15 5 18 10 8 12 4 12 -15 0z"/>
<path d="M1738 3763 c12 -2 30 -2 40 0 9 3 -1 5 -23 4 -22 0 -30 -2 -17 -4z"/>
<path d="M1810 3745 c12 -14 -5 -16 -167 -13 -100 2 -179 0 -176 -4 2 -5 106
-7 231 -6 125 1 205 3 179 5 -30 3 -50 10 -54 19 -3 8 -10 14 -15 14 -6 0 -5
-7 2 -15z"/>
<path d="M1911 3757 c2 -1 13 -9 24 -17 19 -14 19 -14 6 3 -7 9 -18 17 -24 17
-6 0 -8 -1 -6 -3z"/>
<path d="M990 3720 c-79 -29 -136 -88 -160 -168 -11 -35 -20 -86 -20 -113 l0
-48 44 47 c24 26 49 65 56 87 21 67 50 115 97 166 25 27 44 49 42 49 -2 -1
-29 -10 -59 -20z"/>
<path d="M4278 3733 c7 -3 16 -2 19 1 4 3 -2 6 -13 5 -11 0 -14 -3 -6 -6z"/>
<path d="M4212 3407 c-22 -26 -62 -123 -61 -147 0 -17 4 -10 13 21 6 25 24 66
39 92 27 46 31 61 9 34z"/>
<path d="M1415 2580 c0 -454 1 -756 2 -672 l4 152 97 2 c53 1 78 3 55 5 l-42
4 -4 82 -3 82 -2 -82 -2 -83 -50 0 -50 0 0 310 0 310 85 0 85 0 3 -252 2 -253
3 260 2 261 -40 39 -39 39 -51 -43 -50 -42 -3 353 c-1 194 -2 -18 -2 -472z
m144 155 l33 -35 -79 0 -78 0 40 35 c22 19 42 34 45 35 3 0 20 -16 39 -35z"/>
<path d="M4000 3008 l0 -223 -31 -18 c-18 -10 -29 -20 -26 -24 3 -3 13 2 22
11 20 19 32 20 38 4 3 -7 6 96 6 230 1 133 -1 242 -4 242 -3 0 -5 -100 -5
-222z"/>
<path d="M1678 3186 c-10 -7 -18 -19 -18 -27 0 -8 7 -4 16 9 20 29 58 28 115
0 l44 -23 -75 -6 -75 -5 78 -2 c89 -2 96 8 31 45 -44 25 -90 29 -116 9z"/>
<path d="M1548 3171 c-13 -11 -40 -21 -59 -24 l-34 -4 38 -1 c26 -2 43 4 58
19 17 17 29 20 62 16 27 -4 36 -2 26 4 -23 15 -65 10 -91 -10z"/>
<path d="M1375 2455 c0 -385 1 -541 2 -347 2 195 2 510 0 700 -1 191 -2 32 -2
-353z"/>
<path d="M1870 3140 c8 -5 26 -10 39 -10 32 0 24 6 -19 14 -25 4 -31 3 -20 -4z"/>
<path d="M1834 2920 c0 -96 2 -136 3 -87 2 48 2 126 0 175 -1 48 -3 8 -3 -88z"/>
<path d="M4119 2983 c-13 -16 -12 -17 4 -4 16 13 21 21 13 21 -2 0 -10 -8 -17
-17z"/>
<path d="M3510 2746 l-5 -239 -47 -16 c-26 -9 -55 -25 -65 -36 -18 -19 -17
-19 2 -3 11 9 53 26 93 38 39 12 72 24 72 27 0 2 -9 2 -20 -2 -19 -6 -20 0
-22 232 l-3 238 -5 -239z"/>
<path d="M1762 2853 c-1 -56 -6 -105 -12 -108 -6 -4 -10 -68 -10 -160 l0 -154
-52 -3 -53 -3 -1 -90 c-1 -49 0 -80 3 -67 4 21 9 22 99 22 52 0 94 3 94 8 0 4
-43 6 -95 4 l-95 -3 0 61 0 61 93 -4 c50 -2 75 -3 55 0 l-38 4 0 150 c0 85 5
159 10 170 6 11 9 62 7 117 l-3 97 -2 -102z"/>
<path d="M293 2913 c9 -2 25 -2 35 0 9 3 1 5 -18 5 -19 0 -27 -2 -17 -5z"/>
<path d="M3182 2838 c-1 -41 2 -68 8 -68 6 0 30 -18 55 -41 l44 -41 4 -116 3
-117 2 116 2 116 -55 52 c-52 49 -54 54 -58 109 l-3 57 -2 -67z"/>
<path d="M953 2833 c26 -2 68 -2 95 0 26 2 4 3 -48 3 -52 0 -74 -1 -47 -3z"/>
<path d="M1182 2808 l-2 -38 -105 0 c-58 0 -105 -3 -105 -7 0 -5 47 -7 105 -5
l105 3 0 -45 c0 -41 -2 -45 -27 -49 l-28 -4 28 -2 27 -1 0 -206 c-1 -114 2
-209 5 -212 5 -6 6 20 6 325 l-1 192 88 4 87 3 -87 2 -87 2 -4 38 -4 37 -1
-37z"/>
<path d="M1862 2653 l-2 -102 -27 -4 c-16 -2 22 -4 82 -3 82 0 90 1 33 3 l-77
4 -4 102 -3 102 -2 -102z"/>
<path d="M3724 2649 c-19 -22 -19 -22 4 -10 12 6 22 16 22 21 0 15 -5 12 -26
-11z"/>
<path d="M1053 2593 c15 -2 37 -2 50 0 12 2 0 4 -28 4 -27 0 -38 -2 -22 -4z"/>
<path d="M3214 2360 c0 -118 2 -167 3 -107 2 59 2 155 0 215 -1 59 -3 10 -3
-108z"/>
<path d="M3706 2555 c-3 -9 -5 -47 -4 -83 l1 -67 7 80 c6 86 6 95 -4 70z"/>
<path d="M1260 2386 l0 -175 -42 -4 -43 -4 42 -1 42 -2 4 -87 c1 -49 4 32 5
180 1 147 0 267 -3 267 -3 0 -5 -78 -5 -174z"/>
<path d="M4110 2532 c0 -7 -18 -13 -42 -14 l-43 -1 39 -4 c37 -4 67 9 53 24
-4 3 -7 1 -7 -5z"/>
<path d="M1088 2523 c7 -3 16 -2 19 1 4 3 -2 6 -13 5 -11 0 -14 -3 -6 -6z"/>
<path d="M1344 2440 c0 -52 1 -74 3 -47 2 26 2 68 0 95 -2 26 -3 4 -3 -48z"/>
<path d="M958 2493 c6 -2 18 -2 25 0 6 3 1 5 -13 5 -14 0 -19 -2 -12 -5z"/>
<path d="M1098 2493 c12 -2 32 -2 45 0 12 2 2 4 -23 4 -25 0 -35 -2 -22 -4z"/>
<path d="M3244 2355 c0 -82 2 -115 3 -72 2 43 2 110 0 150 -1 40 -3 5 -3 -78z"/>
<path d="M4250 2489 c-31 -6 -30 -6 18 -8 28 0 52 1 52 3 0 8 -37 11 -70 5z"/>
<path d="M3743 2445 c0 -22 2 -30 4 -17 2 12 2 30 0 40 -3 9 -5 -1 -4 -23z"/>
<path d="M3983 2463 c15 -2 39 -2 55 0 15 2 2 4 -28 4 -30 0 -43 -2 -27 -4z"/>
<path d="M4104 2300 c0 -96 2 -136 3 -87 2 48 2 126 0 175 -1 48 -3 8 -3 -88z"/>
<path d="M3338 2433 c7 -3 16 -2 19 1 4 3 -2 6 -13 5 -11 0 -14 -3 -6 -6z"/>
<path d="M3300 2375 c8 -10 27 -14 54 -13 l41 1 -42 4 c-24 2 -43 8 -43 14 0
5 -5 9 -11 9 -8 0 -8 -5 1 -15z"/>
<path d="M1826 2363 c-6 -14 -5 -15 5 -6 7 7 10 15 7 18 -3 3 -9 -2 -12 -12z"/>
<path d="M3271 2364 c0 -11 3 -14 6 -6 3 7 2 16 -1 19 -3 4 -6 -2 -5 -13z"/>
<path d="M3713 2373 c15 -2 37 -2 50 0 12 2 0 4 -28 4 -27 0 -38 -2 -22 -4z"/>
<path d="M777 2320 c22 -30 46 -65 52 -77 11 -22 10 -23 -29 -23 -37 0 -40 -2
-39 -27 2 -24 2 -25 6 -5 4 18 11 22 44 22 21 0 39 4 39 9 0 13 -77 126 -97
142 -9 8 1 -11 24 -41z"/>
<path d="M3554 2245 c0 -60 1 -84 3 -52 2 32 2 81 0 110 -2 29 -3 3 -3 -58z"/>
<path d="M1788 2333 c6 -2 18 -2 25 0 6 3 1 5 -13 5 -14 0 -19 -2 -12 -5z"/>
<path d="M3343 2333 c9 -2 25 -2 35 0 9 3 1 5 -18 5 -19 0 -27 -2 -17 -5z"/>
<path d="M3328 2303 c6 -2 18 -2 25 0 6 3 1 5 -13 5 -14 0 -19 -2 -12 -5z"/>
<path d="M3703 2255 c0 -33 2 -45 4 -27 2 18 2 45 0 60 -2 15 -4 0 -4 -33z"/>
<path d="M3753 2260 c0 -30 2 -43 4 -27 2 15 2 39 0 55 -2 15 -4 2 -4 -28z"/>
<path d="M1473 2265 c0 -22 2 -30 4 -17 2 12 2 30 0 40 -3 9 -5 -1 -4 -23z"/>
<path d="M1872 2263 c-2 -36 -5 -43 -22 -43 -17 0 -20 -6 -18 -47 l1 -48 4 43
4 42 84 0 85 0 3 -170 3 -170 -1 172 0 173 -67 3 -67 3 -4 42 -4 42 -1 -42z"/>
<path d="M3358 2253 c6 -2 18 -2 25 0 6 3 1 5 -13 5 -14 0 -19 -2 -12 -5z"/>
<path d="M1163 2190 c0 -36 2 -50 4 -32 2 17 2 47 0 65 -2 17 -4 3 -4 -33z"/>
<path d="M3328 2223 c12 -2 32 -2 45 0 12 2 2 4 -23 4 -25 0 -35 -2 -22 -4z"/>
<path d="M3343 2193 c9 -2 25 -2 35 0 9 3 1 5 -18 5 -19 0 -27 -2 -17 -5z"/>
<path d="M1006 2173 c-6 -14 -5 -15 5 -6 7 7 10 15 7 18 -3 3 -9 -2 -12 -12z"/>
<path d="M3323 2173 c9 -2 23 -2 30 0 6 3 -1 5 -18 5 -16 0 -22 -2 -12 -5z"/>
<path d="M3221 2127 c2 -1 15 -11 29 -22 l25 -20 -19 23 c-11 12 -24 22 -29
22 -6 0 -8 -1 -6 -3z"/>
<path d="M3318 2123 c6 -2 18 -2 25 0 6 3 1 5 -13 5 -14 0 -19 -2 -12 -5z"/>
<path d="M1928 2053 c12 -2 30 -2 40 0 9 3 -1 5 -23 4 -22 0 -30 -2 -17 -4z"/>
<path d="M4193 2053 c9 -2 23 -2 30 0 6 3 -1 5 -18 5 -16 0 -22 -2 -12 -5z"/>
<path d="M4298 2053 c7 -3 16 -2 19 1 4 3 -2 6 -13 5 -11 0 -14 -3 -6 -6z"/>
<path d="M1478 2033 c12 -2 30 -2 40 0 9 3 -1 5 -23 4 -22 0 -30 -2 -17 -4z"/>
<path d="M1612 2010 c0 -19 2 -27 5 -17 2 9 2 25 0 35 -3 9 -5 1 -5 -18z"/>
<path d="M1131 1996 c-7 -13 -11 -32 -8 -42 4 -15 5 -14 6 5 0 14 8 33 18 43
9 10 12 18 6 18 -5 0 -15 -11 -22 -24z"/>
<path d="M1260 1971 c3 -37 5 -40 8 -16 2 16 8 32 13 35 4 3 1 10 -9 16 -15
10 -17 7 -12 -35z"/>
<path d="M3218 1993 c7 -3 16 -2 19 1 4 3 -2 6 -13 5 -11 0 -14 -3 -6 -6z"/>
<path d="M1473 1963 c9 -2 25 -2 35 0 9 3 1 5 -18 5 -19 0 -27 -2 -17 -5z"/>
<path d="M4432 1950 c0 -14 2 -19 5 -12 2 6 2 18 0 25 -3 6 -5 1 -5 -13z"/>
<path d="M1228 1933 c7 -3 16 -2 19 1 4 3 -2 6 -13 5 -11 0 -14 -3 -6 -6z"/>
<path d="M4283 1933 c9 -2 25 -2 35 0 9 3 1 5 -18 5 -19 0 -27 -2 -17 -5z"/>
<path d="M1033 1885 c0 -27 2 -38 4 -22 2 15 2 37 0 50 -2 12 -4 0 -4 -28z"/>
<path d="M1572 1900 c0 -14 2 -19 5 -12 2 6 2 18 0 25 -3 6 -5 1 -5 -13z"/>
<path d="M1777 1903 l-68 -4 3 -37 c3 -33 6 -37 33 -38 29 -2 29 -2 3 3 -23 4
-28 9 -28 34 l0 29 65 0 c37 0 65 4 65 10 0 6 -1 9 -2 8 -2 -1 -34 -3 -71 -5z"/>
<path d="M1478 1893 c12 -2 30 -2 40 0 9 3 -1 5 -23 4 -22 0 -30 -2 -17 -4z"/>
<path d="M1870 1880 c0 -11 2 -20 4 -20 2 0 6 9 9 20 3 11 1 20 -4 20 -5 0 -9
-9 -9 -20z"/>
<path d="M1468 1853 c7 -3 16 -2 19 1 4 3 -2 6 -13 5 -11 0 -14 -3 -6 -6z"/>
<path d="M1612 1825 c0 -16 2 -22 5 -12 2 9 2 23 0 30 -3 6 -5 -1 -5 -18z"/>
<path d="M1163 1833 c20 -2 54 -2 75 0 20 2 3 4 -38 4 -41 0 -58 -2 -37 -4z"/>
<path d="M1038 1823 c12 -2 30 -2 40 0 9 3 -1 5 -23 4 -22 0 -30 -2 -17 -4z"/>
<path d="M1863 1823 c20 -2 54 -2 75 0 20 2 3 4 -38 4 -41 0 -58 -2 -37 -4z"/>
<path d="M2028 1793 c7 -3 16 -2 19 1 4 3 -2 6 -13 5 -11 0 -14 -3 -6 -6z"/>
<path d="M4217 1778 c-2 -7 2 -20 10 -29 7 -9 29 -54 49 -100 19 -46 33 -71
29 -56 -8 41 -66 167 -76 167 -5 0 -6 7 -3 15 4 8 4 15 1 15 -3 0 -7 -6 -10
-12z"/>
<path d="M1887 1773 c18 -2 50 -2 70 0 21 2 7 4 -32 4 -38 0 -55 -2 -38 -4z"/>
<path d="M4313 1705 c0 -44 2 -61 4 -37 2 23 2 59 0 80 -2 20 -4 1 -4 -43z"/>
<path d="M1948 1743 c18 -2 45 -2 60 0 15 2 0 4 -33 4 -33 0 -45 -2 -27 -4z"/>
<path d="M4516 1712 c20 -35 49 -48 89 -38 33 8 33 43 1 57 -17 8 -33 8 -54 1
-22 -7 -33 -7 -42 1 -7 7 -4 -3 6 -21z"/>
<path d="M4486 1640 c-9 -22 -16 -53 -15 -68 0 -18 5 -10 15 28 8 30 20 57 25
61 7 4 8 9 1 13 -5 3 -17 -12 -26 -34z"/>
<path d="M4538 1653 c7 -3 16 -2 19 1 4 3 -2 6 -13 5 -11 0 -14 -3 -6 -6z"/>
<path d="M4580 1643 c8 -3 22 -11 30 -17 13 -10 13 -9 1 7 -7 9 -21 17 -30 16
-13 0 -14 -1 -1 -6z"/>
<path d="M4150 1591 c-19 -5 -21 -8 -10 -13 9 -3 24 0 35 8 20 15 15 16 -25 5z"/>
<path d="M4190 1556 c0 -3 14 -12 30 -21 17 -9 30 -13 30 -11 0 3 -13 12 -30
21 -16 9 -30 13 -30 11z"/>
<path d="M4462 1520 c0 -14 2 -19 5 -12 2 6 2 18 0 25 -3 6 -5 1 -5 -13z"/>
<path d="M4480 1406 c0 -2 8 -10 18 -17 15 -13 16 -12 3 4 -13 16 -21 21 -21
13z"/>
<path d="M705 853 c-89 -4 -121 -11 -108 -24 5 -5 110 -12 234 -16 193 -5 232
-4 282 11 31 9 57 21 57 27 0 6 -9 7 -22 3 -82 -26 -193 -32 -263 -13 -51 14
-92 17 -180 12z"/>
<path d="M125 771 c28 -3 1140 -5 2473 -4 l2422 1 0 -39 0 -39 -2477 -2
c-1363 -1 -2417 -5 -2343 -8 l135 -5 5 -340 c4 -247 6 -292 8 -165 4 246 12
493 15 497 2 1 77 -2 168 -7 145 -9 235 -23 292 -45 15 -6 16 -4 7 20 -5 14
-10 30 -10 33 0 6 219 8 263 3 4 -1 8 -153 9 -338 l3 -338 3 320 3 320 24 -75
c23 -71 25 -88 25 -317 0 -233 1 -243 19 -243 13 0 37 27 75 87 30 49 103 151
161 228 l107 140 -5 113 -4 112 198 0 c110 0 199 -2 199 -5 0 -24 -28 -54 -60
-64 -87 -26 -118 -117 -58 -172 l31 -30 -27 -117 c-24 -108 -45 -233 -46 -274
0 -28 48 -24 55 4 34 150 45 201 51 245 6 48 10 54 43 70 24 12 62 53 116 124
80 108 140 160 204 179 28 8 42 5 95 -22 33 -17 84 -46 113 -64 103 -66 153
-86 192 -79 41 8 226 77 283 106 30 16 50 19 80 14 38 -7 46 -13 83 -60 15
-18 15 -18 1 10 -19 39 -61 78 -113 104 -24 12 -43 23 -43 25 0 8 86 -16 108
-30 12 -8 36 -34 53 -57 24 -32 29 -36 24 -17 -9 31 -52 78 -78 86 -16 5 -17
8 -6 14 57 32 114 -54 114 -169 -1 -76 -23 -126 -78 -179 -37 -36 -33 -35
-352 -62 -71 -6 -147 -13 -167 -16 -36 -6 -38 -5 -38 20 0 37 -23 78 -60 110
-29 24 -33 25 -59 12 -15 -8 -49 -40 -74 -71 l-47 -57 -1 38 c0 22 0 59 1 83
3 83 -18 32 -25 -61 -6 -75 -14 -107 -41 -164 -18 -39 -36 -89 -40 -112 -7
-42 -6 -42 25 -42 31 0 31 0 31 55 0 64 23 116 94 213 51 69 81 88 121 78 39
-10 53 -56 63 -204 9 -123 18 -166 29 -134 6 15 113 17 113 2 0 -6 28 -10 64
-10 53 0 65 3 69 18 4 16 5 16 6 0 1 -22 21 -24 21 -3 0 21 174 25 353 9 73
-6 77 -6 77 14 0 23 -43 42 -96 42 -60 0 -36 18 65 51 118 38 184 83 219 151
25 49 52 195 52 286 l0 52 53 0 c63 0 82 10 72 39 -6 20 -3 21 59 21 l66 0 2
-342 c1 -189 4 -296 5 -239 l4 104 30 -42 c17 -22 34 -39 39 -36 4 3 8 -1 7
-8 -2 -56 5 -117 13 -117 6 0 10 28 10 65 l0 65 430 0 430 0 0 -65 c0 -37 4
-65 10 -65 6 0 10 120 10 340 l0 340 25 0 25 0 3 -342 2 -343 3 343 2 342 150
0 150 0 0 50 0 50 -2482 -1 c-1366 -1 -2460 -5 -2433 -8z m3655 -151 c0 -33
-2 -60 -6 -60 -3 0 -21 12 -40 28 -26 21 -34 34 -34 60 0 31 2 32 40 32 l40 0
0 -60z m880 -20 l0 -70 -430 0 -430 0 0 58 0 58 243 -3 c166 -3 283 1 372 10
72 8 156 15 188 16 l57 1 0 -70z m-1304 -52 c-9 -114 -23 -159 -59 -203 -51
-63 -67 -66 -475 -96 -85 -6 -156 -8 -159 -5 -4 3 5 6 18 6 63 0 486 41 520
50 51 14 93 51 113 100 12 31 35 174 36 223 0 4 3 7 6 7 4 0 4 -37 0 -82z
m424 -204 c0 -107 -3 -194 -7 -194 -4 0 -22 14 -40 32 l-33 32 0 194 0 194 40
-32 40 -32 0 -194z m880 -10 l0 -184 -430 0 -430 0 0 183 0 182 430 2 430 2 0
-185z m-1296 14 c-20 -66 -94 -132 -166 -148 -206 -45 -636 -77 -698 -52 -18
7 6 9 85 5 168 -9 590 43 663 81 37 19 90 79 98 111 3 14 10 25 16 25 5 0 6
-10 2 -22z"/>
<path d="M3960 321 c-118 -16 269 -28 465 -14 89 6 95 8 55 14 -54 9 -456 9
-520 0z"/>
<path d="M2142 156 c-6 -13 -13 -41 -17 -63 -4 -29 -1 -24 14 22 21 61 22 83
3 41z"/>
</g>
</svg>