<?xml version="1.0" encoding="UTF-8"?>
<svg xmlns="http://www.w3.org/2000/svg" xmlns:xlink="http://www.w3.org/1999/xlink" width="451.06pt" height="450.1311pt" viewBox="0 0 451.06 450.1311">
<defs>
<clipPath id="clip-0">
<path clip-rule="nonzero" d="M 0 0 L 451.058594 0 L 451.058594 450.132812 L 0 450.132812 Z M 0 0 "/>
</clipPath>
<clipPath id="clip-1">
<path clip-rule="nonzero" d="M 0 0 L 451 0 L 451 450.132812 L 0 450.132812 Z M 0 0 "/>
</clipPath>
</defs>
<g clip-path="url(#clip-0)">
<rect x="-45.106" y="-45.01311" width="541.272" height="540.15732" fill="rgb(100%, 100%, 100%)" fill-opacity="1"/>
</g>
<g clip-path="url(#clip-1)">
<path fill="none" stroke-width="50" stroke-linecap="butt" stroke-linejoin="miter" stroke="rgb(0%, 0%, 0%)" stroke-opacity="1" stroke-miterlimit="4" d="M 1337.05675 698.886625 L 5800.923937 698.886625 L 5800.923937 5162.753812 L 1337.05675 5162.753812 Z M 1337.05675 698.886625 " transform="matrix(0.1, 0, 0, -0.1, -131.5963, 518.1621)"/>
</g>
<path fill-rule="nonzero" fill="rgb(0%, 0%, 0%)" fill-opacity="1" d="M 207.71875 174.261719 L 207.71875 113.066406 L 202.625 113.066406 C 201.621094 115.464844 200.527344 117.113281 199.328125 118.015625 C 198.121094 118.898438 196.132812 119.367188 193.335938 119.367188 C 190.726562 119.363281 187.539062 118.765625 183.742188 117.566406 C 179.933594 116.363281 175.652344 115.117188 170.855469 113.816406 C 166.042969 112.5 160.867188 111.269531 155.269531 110.066406 C 149.652344 108.863281 143.878906 108.265625 137.886719 108.265625 C 125.070312 108.265625 112.058594 110.914062 98.773438 116.214844 C 85.460938 121.496094 73.457031 129.0625 62.683594 138.863281 C 51.886719 148.664062 43.085938 160.464844 36.207031 174.265625 C 29.328125 188.058594 25.890625 203.460938 25.890625 220.460938 C 25.863281 236.027344 28.988281 250.558594 35.1875 263.957031 C 41.359375 277.324219 49.632812 289.007812 59.925781 298.910156 C 70.214844 308.796875 82.167969 316.613281 95.757812 322.308594 C 109.335938 327.992188 123.449219 330.855469 138.042969 330.855469 C 147.226562 330.824219 155.085938 329.90625 161.582031 328.007812 C 168.054688 326.09375 173.828125 324.058594 178.824219 321.855469 C 183.816406 319.625 188.472656 317.605469 192.769531 315.707031 C 197.042969 313.792969 201.617188 312.855469 206.417969 312.855469 C 208.808594 312.824219 210.960938 313.40625 212.863281 314.507812 C 214.742188 315.59375 215.914062 317.359375 216.3125 319.757812 L 221.707031 319.757812 L 221.707031 251.0625 L 241.191406 251.0625 L 241.191406 246.859375 L 148.476562 246.859375 L 148.476562 251.0625 L 179.347656 251.0625 L 179.347656 262.460938 C 179.332031 271.628906 178.949219 280.160156 178.148438 287.960938 C 177.335938 295.730469 175.5 302.511719 172.597656 308.210938 C 169.664062 313.894531 165.546875 318.40625 160.144531 321.707031 C 154.734375 324.992188 147.449219 326.65625 138.25 326.65625 C 127.03125 326.625 117.394531 325.007812 109.292969 321.707031 C 101.164062 318.394531 94.59375 312.960938 89.492188 305.359375 C 84.363281 297.726562 80.644531 287.761719 78.246094 275.359375 C 75.832031 262.925781 74.644531 247.660156 74.644531 229.460938 L 74.644531 203.363281 C 74.632812 192.160156 75.34375 181.113281 76.742188 170.214844 C 78.128906 159.300781 81.089844 149.617188 85.585938 141.117188 C 90.054688 132.597656 96.523438 125.714844 104.917969 120.417969 C 113.304688 115.097656 124.398438 112.46875 138.1875 112.46875 C 155.542969 112.265625 169.457031 117.617188 179.847656 128.515625 C 190.222656 139.394531 198.03125 154.660156 203.226562 174.261719 L 207.71875 174.261719 "/>
<path fill-rule="nonzero" fill="rgb(0%, 0%, 0%)" fill-opacity="1" d="M 264.386719 260.0625 L 264.386719 326.65625 L 269.28125 326.65625 C 270.25 323.828125 271.371094 322.007812 272.566406 321.105469 C 273.738281 320.191406 275.753906 319.757812 278.542969 319.757812 C 280.519531 319.722656 283.566406 320.355469 287.652344 321.558594 C 291.71875 322.726562 296.417969 324.007812 301.695312 325.308594 C 306.941406 326.589844 312.648438 327.855469 318.722656 329.054688 C 324.789062 330.226562 330.917969 330.855469 337.09375 330.855469 C 349.410156 330.824219 360.640625 328.90625 370.699219 325.007812 C 380.726562 321.089844 389.417969 315.855469 396.6875 309.257812 C 403.925781 302.625 409.582031 294.957031 413.566406 286.160156 C 417.527344 277.328125 419.542969 268.0625 419.542969 258.265625 C 419.527344 248.261719 417.695312 239.859375 414.007812 233.058594 C 410.320312 226.226562 405.488281 220.460938 399.507812 215.660156 C 393.527344 210.828125 386.699219 206.910156 379.023438 203.808594 C 371.339844 200.695312 363.472656 197.863281 355.402344 195.265625 C 347.296875 192.664062 339.457031 190.164062 331.777344 187.765625 C 324.078125 185.363281 317.273438 182.511719 311.292969 179.210938 C 305.285156 175.894531 300.480469 171.960938 296.792969 167.363281 C 293.074219 162.765625 291.261719 156.964844 291.261719 149.964844 C 291.242188 145.363281 292.359375 140.863281 294.558594 136.464844 C 296.738281 132.0625 299.953125 128.066406 304.148438 124.46875 C 308.328125 120.867188 313.488281 117.96875 319.582031 115.769531 C 325.652344 113.566406 332.722656 112.46875 340.714844 112.46875 C 350.5 112.464844 358.597656 114.167969 364.992188 117.566406 C 371.355469 120.964844 376.679688 125.414062 380.875 130.914062 C 385.046875 136.394531 388.519531 142.5625 391.21875 149.363281 C 393.910156 156.160156 396.460938 163.0625 398.859375 170.0625 L 402.757812 170.0625 L 402.757812 113.066406 L 397.960938 113.066406 C 396.941406 115.464844 396.011719 117.113281 395.113281 118.015625 C 394.210938 118.898438 392.367188 119.367188 389.570312 119.367188 C 387.148438 119.363281 384.523438 118.765625 381.625 117.566406 C 378.722656 116.363281 375.382812 115.117188 371.585938 113.816406 C 367.761719 112.5 363.394531 111.269531 358.398438 110.066406 C 353.371094 108.863281 347.609375 108.265625 341.015625 108.265625 C 330.621094 108.265625 320.984375 110.015625 312.089844 113.515625 C 303.167969 117 295.566406 121.617188 289.1875 127.316406 C 282.78125 133 277.832031 139.566406 274.25 146.964844 C 270.65625 154.363281 268.882812 162.0625 268.882812 170.0625 C 268.855469 180.863281 270.625 189.863281 274.113281 197.0625 C 277.59375 204.261719 282.230469 210.308594 288.003906 215.210938 C 293.78125 220.09375 300.351562 224.109375 307.71875 227.210938 C 315.082031 230.296875 322.65625 233.011719 330.421875 235.3125 C 338.183594 237.597656 345.757812 239.863281 353.125 242.0625 C 360.488281 244.261719 367.066406 246.960938 372.84375 250.160156 C 378.605469 253.359375 383.25 257.359375 386.738281 262.160156 C 390.210938 266.925781 391.96875 273.058594 391.96875 280.460938 C 391.945312 284.429688 391.171875 289.113281 389.582031 294.410156 C 387.964844 299.691406 385.257812 304.757812 381.378906 309.558594 C 377.476562 314.328125 372.183594 318.40625 365.425781 321.707031 C 358.660156 324.992188 350.019531 326.65625 339.484375 326.65625 C 336.472656 326.625 333.269531 326.605469 329.792969 326.507812 C 326.285156 326.390625 322.632812 325.808594 318.757812 324.707031 C 314.863281 323.59375 310.800781 321.859375 306.527344 319.460938 C 302.246094 317.027344 297.828125 313.558594 293.257812 308.960938 C 289.027344 304.925781 285.484375 300.609375 282.574219 295.910156 C 279.640625 291.191406 277.257812 286.609375 275.351562 282.109375 C 273.429688 277.59375 271.988281 273.410156 270.988281 269.507812 C 269.957031 265.59375 269.28125 262.460938 268.882812 260.0625 L 264.386719 260.0625 "/>
</svg>
